<svg viewBox="0 0 1075 585" fill="none" xmlns="http://www.w3.org/2000/svg">
<path d="M540.643 584.231C831.973 584.231 1068.14 568.596 1068.14 549.309C1068.14 530.023 831.973 514.388 540.643 514.388C249.313 514.388 13.1428 530.023 13.1428 549.309C13.1428 568.596 249.313 584.231 540.643 584.231Z" fill="#CCCACA"/>
<path d="M520.425 167.01C434.481 167.01 372.774 222.149 372.774 350.808C372.774 496.621 434.481 535.218 520.425 535.218C606.369 535.218 671.752 492.945 671.752 350.808C671.752 198.868 606.369 167.01 520.425 167.01ZM520.99 486.818C461.463 486.818 430.364 451.895 430.364 350.902C430.364 261.79 462.736 214.797 522.263 214.797C581.79 214.797 614.162 245.665 614.162 350.902C614.162 449.349 580.517 486.818 520.99 486.818Z" fill="#E46F6F"/>
<path d="M321.31 433.517H285.776V328.877C285.776 323.319 283.568 317.989 279.638 314.059C275.708 310.129 270.378 307.921 264.82 307.921H256.494C253.742 307.921 251.017 308.463 248.474 309.517C245.932 310.57 243.622 312.113 241.676 314.059C239.73 316.005 238.186 318.315 237.133 320.858C236.08 323.4 235.538 326.125 235.538 328.877V433.517H135.308C133.246 433.517 131.219 432.984 129.424 431.97C127.629 430.955 126.126 429.494 125.062 427.728C123.997 425.962 123.407 423.951 123.349 421.89C123.291 419.829 123.767 417.788 124.73 415.965L230.813 215.184C232.135 212.681 232.937 209.936 233.169 207.114C233.402 204.293 233.06 201.453 232.164 198.767C231.269 196.082 229.839 193.605 227.96 191.487C226.081 189.369 223.792 187.654 221.232 186.445L214.97 183.488C210.107 181.192 204.548 180.853 199.443 182.541C194.337 184.23 190.076 187.816 187.541 192.558L58.1593 434.591C55.9561 438.712 54.8035 443.314 54.8035 447.987C54.8035 451.719 55.5385 455.414 56.9665 458.861C58.3945 462.309 60.4876 465.441 63.1263 468.08C65.7649 470.719 68.8975 472.812 72.345 474.24C75.7926 475.668 79.4877 476.403 83.2193 476.403H235.538V542.57C235.538 545.869 236.188 549.135 237.45 552.183C238.712 555.23 240.563 557.999 242.895 560.332C245.228 562.664 247.997 564.515 251.044 565.777C254.092 567.039 257.358 567.689 260.657 567.689H260.657C263.956 567.689 267.222 567.039 270.27 565.777C273.317 564.515 276.086 562.664 278.419 560.332C280.751 557.999 282.602 555.23 283.864 552.183C285.126 549.135 285.776 545.869 285.776 542.57V476.403H321.31C326.997 476.403 332.452 474.144 336.473 470.122C340.494 466.101 342.753 460.647 342.753 454.96C342.753 449.273 340.494 443.819 336.473 439.797C332.452 435.776 326.997 433.517 321.31 433.517Z" fill="#E46F6F"/>
<path d="M979.307 433.517H943.773V328.877C943.773 323.319 941.565 317.989 937.635 314.059C933.705 310.129 928.375 307.921 922.817 307.921H914.49C911.739 307.921 909.014 308.463 906.471 309.517C903.929 310.57 901.618 312.113 899.672 314.059C897.727 316.005 896.183 318.315 895.13 320.858C894.077 323.4 893.535 326.125 893.535 328.877V433.517H793.305C791.243 433.517 789.216 432.984 787.42 431.97C785.625 430.955 784.122 429.494 783.058 427.728C781.994 425.962 781.404 423.951 781.346 421.89C781.288 419.829 781.764 417.788 782.727 415.965L888.809 215.184C890.132 212.681 890.934 209.936 891.166 207.114C891.398 204.293 891.056 201.453 890.161 198.767C889.266 196.082 887.835 193.605 885.956 191.487C884.078 189.369 881.789 187.654 879.229 186.445L872.967 183.488C868.104 181.192 862.545 180.853 857.439 182.541C852.334 184.23 848.072 187.816 845.537 192.558L716.156 434.591C713.953 438.712 712.8 443.314 712.8 447.987C712.8 455.523 715.794 462.751 721.123 468.08C726.452 473.409 733.68 476.403 741.216 476.403H893.535V542.57C893.535 549.232 896.181 555.621 900.892 560.332C905.603 565.043 911.992 567.689 918.654 567.689C925.316 567.689 931.705 565.043 936.415 560.332C941.126 555.621 943.773 549.232 943.773 542.57V476.403H979.307C984.994 476.403 990.448 474.144 994.469 470.122C998.491 466.101 1000.75 460.647 1000.75 454.96C1000.75 449.273 998.491 443.819 994.469 439.797C990.448 435.776 984.994 433.517 979.307 433.517Z" fill="#E46F6F"/>
<path d="M331.113 421.264H295.579V316.624C295.579 313.872 295.037 311.147 293.984 308.605C292.931 306.062 291.387 303.752 289.441 301.806C287.495 299.86 285.185 298.317 282.643 297.263C280.1 296.21 277.375 295.668 274.623 295.668H266.297C260.739 295.668 255.409 297.876 251.479 301.806C247.549 305.736 245.341 311.066 245.341 316.624V421.264H145.111C143.049 421.264 141.022 420.731 139.227 419.716C137.431 418.702 135.929 417.241 134.864 415.475C133.8 413.709 133.21 411.698 133.152 409.637C133.094 407.576 133.57 405.535 134.533 403.712L240.615 202.931C241.938 200.428 242.74 197.683 242.972 194.861C243.204 192.04 242.862 189.2 241.967 186.514C241.072 183.828 239.642 181.352 237.763 179.234C235.884 177.116 233.595 175.401 231.035 174.192L224.773 171.235C219.91 168.939 214.351 168.6 209.245 170.288C204.14 171.976 199.879 175.563 197.344 180.305L67.962 422.338C65.7589 426.459 64.6062 431.06 64.6062 435.734V435.734C64.6062 443.27 67.6 450.498 72.929 455.827C78.258 461.156 85.4857 464.15 93.022 464.15H245.341V530.317C245.341 533.616 245.991 536.882 247.253 539.93C248.515 542.977 250.365 545.746 252.698 548.079C255.031 550.411 257.8 552.262 260.847 553.524C263.895 554.786 267.161 555.436 270.46 555.436H270.46C277.122 555.436 283.511 552.789 288.222 548.079C292.932 543.368 295.579 536.979 295.579 530.317V464.15H331.113C333.929 464.15 336.717 463.595 339.319 462.517C341.921 461.44 344.285 459.86 346.276 457.869C348.267 455.878 349.846 453.514 350.924 450.913C352.002 448.311 352.556 445.523 352.556 442.707V442.707C352.556 439.891 352.002 437.102 350.924 434.501C349.846 431.899 348.267 429.535 346.276 427.544C344.285 425.553 341.921 423.973 339.319 422.896C336.717 421.818 333.929 421.264 331.113 421.264V421.264Z" stroke="#BBC9D0" stroke-miterlimit="10"/>
<path d="M997.687 421.264H962.153V316.624C962.153 311.066 959.945 305.736 956.015 301.806C952.085 297.876 946.755 295.668 941.197 295.668H932.87C930.118 295.668 927.393 296.21 924.851 297.263C922.308 298.317 919.998 299.86 918.052 301.806C916.106 303.752 914.563 306.062 913.51 308.605C912.457 311.147 911.915 313.872 911.915 316.624V421.264H811.684C809.623 421.264 807.596 420.731 805.8 419.716C804.005 418.702 802.502 417.241 801.438 415.475C800.374 413.709 799.784 411.698 799.726 409.637C799.668 407.576 800.144 405.535 801.107 403.712L907.189 202.931C908.512 200.428 909.313 197.683 909.546 194.861C909.778 192.04 909.436 189.2 908.541 186.514C907.646 183.828 906.215 181.352 904.336 179.234C902.457 177.116 900.169 175.401 897.609 174.192L891.347 171.235C886.484 168.939 880.925 168.6 875.819 170.288C870.714 171.976 866.452 175.563 863.917 180.305L734.536 422.338C732.333 426.459 731.18 431.06 731.18 435.734C731.18 443.27 734.174 450.498 739.503 455.827C744.832 461.156 752.059 464.15 759.596 464.15H911.915V530.317C911.915 536.979 914.561 543.368 919.272 548.079C923.982 552.789 930.372 555.436 937.034 555.436V555.436C943.696 555.436 950.085 552.789 954.795 548.079C959.506 543.368 962.153 536.979 962.153 530.317V464.15H997.687C1000.5 464.15 1003.29 463.595 1005.89 462.517C1008.49 461.44 1010.86 459.86 1012.85 457.869C1014.84 455.878 1016.42 453.514 1017.5 450.913C1018.58 448.311 1019.13 445.523 1019.13 442.707V442.707C1019.13 437.02 1016.87 431.565 1012.85 427.544C1008.83 423.523 1003.37 421.264 997.687 421.264V421.264Z" stroke="#BBC9D0" stroke-miterlimit="10"/>
<path d="M540.03 155.982C454.086 155.982 392.379 211.121 392.379 339.78C392.379 485.593 454.086 524.19 540.03 524.19C625.974 524.19 691.357 481.917 691.357 339.78C691.357 187.84 625.974 155.982 540.03 155.982ZM540.595 475.79C481.068 475.79 449.969 440.867 449.969 339.874C449.969 250.762 482.341 203.769 541.868 203.769C601.395 203.769 633.767 234.637 633.767 339.874C633.767 438.321 600.122 475.79 540.595 475.79V475.79Z" stroke="#BBC9D0" stroke-miterlimit="10"/>
<path d="M471.14 31.1517C478.266 31.1517 484.042 25.3757 484.042 18.2505C484.042 11.1254 478.266 5.34937 471.14 5.34937C464.015 5.34937 458.239 11.1254 458.239 18.2505C458.239 25.3757 464.015 31.1517 471.14 31.1517Z" fill="#3F525B"/>
<path d="M502.607 93.7695C522.592 93.7695 538.793 72.7785 538.793 46.8848C538.793 20.991 522.592 0 502.607 0C482.622 0 466.42 20.991 466.42 46.8848C466.42 72.7785 482.622 93.7695 502.607 93.7695Z" fill="#3F525B"/>
<path opacity="0.1" d="M502.607 79.6098C484.479 79.6098 469.465 62.3393 466.831 39.8049C466.557 42.1549 466.42 44.5189 466.42 46.8848C466.42 72.7786 482.622 93.7696 502.607 93.7696C522.592 93.7696 538.793 72.7786 538.793 46.8848C538.793 44.5189 538.656 42.1549 538.382 39.8049C535.748 62.3393 520.734 79.6098 502.607 79.6098Z" fill="black"/>
<path d="M576.241 184.189C575.464 187.382 572.114 189.94 568.403 191.727C560.601 195.483 550.977 196.605 541.643 196.981C539.262 197.126 536.873 197.081 534.498 196.849C529.898 196.404 525.581 194.42 522.248 191.217C522.01 191.062 521.815 190.849 521.682 190.599C521.548 190.348 521.481 190.067 521.485 189.783C521.489 189.499 521.566 189.221 521.707 188.975C521.848 188.728 522.049 188.521 522.292 188.374C527.261 182.915 535.554 179.567 543.908 177.157C550.242 175.33 561.289 170.597 568.198 171.235C574.89 171.854 577.223 180.157 576.241 184.189Z" fill="#3F3D56"/>
<path opacity="0.1" d="M576.241 184.189C575.464 187.382 572.114 189.94 568.403 191.727C560.601 195.483 550.977 196.605 541.643 196.981C539.262 197.126 536.873 197.081 534.498 196.849C529.898 196.404 525.581 194.42 522.248 191.217C522.01 191.062 521.815 190.849 521.682 190.599C521.548 190.348 521.481 190.067 521.485 189.783C521.489 189.499 521.566 189.221 521.707 188.975C521.848 188.728 522.049 188.521 522.292 188.374C527.261 182.915 535.554 179.567 543.908 177.157C550.242 175.33 561.289 170.597 568.198 171.235C574.89 171.854 577.223 180.157 576.241 184.189Z" fill="black"/>
<path d="M477.043 160.321C474.662 164.989 474.231 170.411 475.845 175.396C477.486 180.344 480.559 184.693 484.674 187.893C494.768 195.985 508.662 197.098 521.598 196.986C532.936 196.887 544.258 196.111 555.504 194.662C559.272 194.328 562.975 193.468 566.505 192.107C570.728 190.281 574.438 186.93 575.941 182.582C577.444 178.234 576.377 172.909 572.807 170.007C569.671 167.458 565.345 167.107 561.31 166.865L538.222 165.477C540.503 163.169 543.54 161.863 546.318 160.185C550.003 157.958 552.451 154.22 555.131 150.85C559.26 145.916 563.752 141.297 568.57 137.033C569.321 141.344 572.048 144.883 575.257 147.857C578.466 150.831 582.165 153.226 585.501 156.057C593.579 162.916 599.397 172.224 607.893 178.558C613.738 177.022 619.202 174.294 623.942 170.546L620.639 164.564C620.364 163.949 619.936 163.414 619.395 163.011C618.46 162.436 617.255 162.733 616.17 162.57C613.269 162.135 612.002 158.786 610.864 156.083C607.739 148.661 601.756 142.903 596.646 136.679C592.875 132.084 589.529 127.156 586.65 121.956C584.934 118.854 583.362 115.625 581.033 112.953C578.703 110.281 575.439 108.18 571.894 108.172C568.762 108.166 565.873 109.756 563.18 111.355C554.978 116.227 547.086 121.604 539.55 127.454C535.606 130.516 531.687 133.751 527.061 135.628C525.113 136.418 523.06 136.959 521.191 137.92C517.918 139.605 515.434 142.455 512.76 144.984C503.222 154.008 490.164 159.854 477.043 160.321Z" fill="#BBC9D0"/>
<path d="M525.319 96.0981C525.212 98.8562 524.625 101.575 523.585 104.131C523.058 105.407 522.274 106.56 521.282 107.518C520.289 108.477 519.11 109.221 517.818 109.704C515.982 110.196 514.058 110.258 512.195 109.887C510.57 109.717 509.004 109.183 507.613 108.326C505.448 106.838 504.369 104.182 503.976 101.583C503.582 98.9866 503.758 96.3341 503.507 93.7192C503.261 91.6072 502.86 89.5163 502.305 87.4638C502.135 86.7809 501.962 86.1013 501.792 85.4216C501.625 84.7419 501.461 84.0622 501.31 83.3826C501.172 82.7438 501.043 82.1019 500.933 81.4568C500.841 80.9125 500.76 80.365 500.7 79.8143C500.645 78.1818 500.373 76.5639 499.891 75.0031C499.439 73.9909 498.873 73.0334 498.205 72.1491C497.918 71.7401 497.641 71.331 497.386 70.9062C496.649 69.8022 496.307 68.4816 496.414 67.1586C496.444 66.954 496.494 66.7528 496.562 66.5576C496.587 66.482 496.615 66.4066 496.647 66.3342C496.93 66.2573 497.19 66.1125 497.405 65.9123C497.619 65.7122 497.781 65.4627 497.877 65.1856C497.986 64.5903 497.935 63.977 497.729 63.4078C497.494 62.6124 497.173 61.8452 496.77 61.1201C496.505 60.6419 495.609 59.7797 495.602 59.2321C495.59 58.1308 497.742 57.2435 498.614 56.8092C501.274 55.477 504.241 54.8754 507.21 55.066C509.114 55.195 511.178 55.7803 512.229 57.3756C513.173 58.8136 513.047 60.6764 513.45 62.3473C513.492 62.5902 513.595 62.8185 513.749 63.0112C513.954 63.1984 514.213 63.3171 514.488 63.3511C514.955 63.4438 515.432 63.4629 515.904 63.4077H515.908C516.032 63.3978 516.156 63.38 516.279 63.3542C517.014 63.2186 517.709 62.9185 518.312 62.4763C518.702 62.3725 519.095 62.2875 519.492 62.2214C519.508 62.2198 519.523 62.2166 519.539 62.212C521.115 67.1868 521.32 72.5203 522.61 77.5864C523.249 80.1069 524.164 82.5958 524.293 85.1887C524.303 85.3019 524.306 85.4184 524.309 85.5348C524.328 86.3686 524.262 87.2088 524.297 88.0395C524.309 88.4136 524.351 88.7861 524.422 89.1534C524.563 89.7442 524.739 90.3263 524.948 90.8967L524.957 90.925C525.017 91.1075 525.074 91.2931 525.121 91.4788C525.155 91.6141 525.187 91.7463 525.212 91.8816L525.215 91.891C525.448 93.2814 525.483 94.6979 525.319 96.0981Z" fill="#FDB797"/>
<path d="M503.236 63.5619C513.489 63.5619 521.801 55.25 521.801 44.9968C521.801 34.7435 513.489 26.4316 503.236 26.4316C492.983 26.4316 484.671 34.7435 484.671 44.9968C484.671 55.25 492.983 63.5619 503.236 63.5619Z" fill="#FDB797"/>
<path d="M621.102 146.148C620.564 141.083 618.764 136.234 615.866 132.045C616.348 134.909 616.83 137.771 617.314 140.632C616.713 140.806 616.074 140.801 615.476 140.617C614.878 140.433 614.347 140.079 613.947 139.597C613.165 138.621 612.567 137.511 612.182 136.321C610.073 131.085 607.314 126.135 603.972 121.586C592.153 120.601 580.47 115.702 570.077 109.99C559.68 104.282 549.951 97.4386 539.693 91.4883C537.915 90.4133 536.062 89.4669 534.148 88.6563C530.939 87.3693 527.336 86.7023 524.293 85.1887C524.089 85.088 523.884 84.9811 523.683 84.8709C522.995 84.4971 522.344 84.0599 521.738 83.5651C521.411 83.299 521.1 83.0132 520.807 82.7092C519.289 80.943 518.085 78.9293 517.248 76.7558C515.615 73.1435 515.033 68.7854 513.403 65.173C514.152 64.4729 514.994 63.8789 515.904 63.4078H515.908C516.04 63.3385 516.172 63.2725 516.307 63.2095C516.952 62.9058 517.623 62.6604 518.312 62.4764C518.702 62.3725 519.095 62.2876 519.492 62.2215C519.508 62.2199 519.523 62.2167 519.539 62.212C521.377 61.9125 523.261 62.0615 525.03 62.6463C527.616 63.521 529.797 65.2674 531.971 66.9194C535.503 69.408 538.892 72.0953 542.119 74.9685C543.913 76.6865 545.549 78.5745 547.478 80.1352C549.081 81.3723 550.77 82.4923 552.534 83.4864C562.972 89.7041 573.41 95.9208 583.849 102.136C587.383 104.242 590.92 106.347 594.375 108.574C599.624 111.96 604.683 115.629 609.74 119.295C612.72 121.454 615.699 123.613 618.676 125.774C619.653 126.397 620.511 127.19 621.209 128.115C621.826 129.165 622.209 130.336 622.333 131.548C623.08 136.444 622.659 141.447 621.102 146.148Z" fill="#FDB797"/>
<path d="M529.923 110.06C528.67 115.676 522.994 119.072 520.026 124.005C516.339 130.129 517.843 137.246 519.227 144.26C516.697 146.441 514.166 148.622 511.634 150.802C510.237 152.001 508.84 153.206 507.336 154.267C505.143 155.736 502.851 157.052 500.476 158.206C498.236 159.358 495.996 160.511 493.755 161.664C491.672 162.835 489.466 163.77 487.176 164.452C482.761 165.585 478.072 164.792 473.705 163.48C473.19 163.345 472.695 163.143 472.232 162.879C471.96 162.716 471.722 162.501 471.534 162.246C471.103 161.474 470.947 160.579 471.09 159.707C471.534 152.357 473.33 145.16 475.121 138.017C476.078 133.732 477.364 129.527 478.969 125.44C480.543 121.938 482.352 118.547 484.385 115.289C486.627 111.191 489.284 107.333 492.314 103.776C493.789 102.407 495.03 100.806 495.989 99.0369C497.106 96.4882 496.675 93.5649 496.902 90.7896C497.075 88.7045 497.629 86.6686 498.535 84.7827V84.7796C499.02 83.7638 499.604 82.7983 500.278 81.8973C500.583 82.6084 500.889 83.3185 501.194 84.0275C501.395 84.4932 501.595 84.9579 501.792 85.4215C502.05 86.0194 502.306 86.6152 502.559 87.2088C503.293 88.9143 504.025 90.6187 504.756 92.3221C505.546 94.4675 506.672 96.4739 508.091 98.2661C508.74 99.1838 509.616 99.9176 510.633 100.396C511.65 100.874 512.774 101.08 513.895 100.994C515.015 100.908 516.095 100.533 517.027 99.9055C517.959 99.2779 518.713 98.4192 519.215 97.4133C520.272 95.5357 521.038 93.5081 521.486 91.4001C522.108 88.8335 522.194 86.1663 521.738 83.565C520.98 78.5556 518.85 73.4392 517.301 68.7853C516.671 67.2336 516.306 65.587 516.222 63.9143C516.225 63.7264 516.244 63.539 516.279 63.3542C516.288 63.307 516.298 63.2567 516.307 63.2095C516.952 62.9058 517.623 62.6604 518.311 62.4763C518.702 62.3725 519.095 62.2875 519.491 62.2214C520.854 69.5971 522.219 76.9728 523.585 84.3485C523.617 84.5216 523.651 84.6947 523.683 84.8709C523.878 85.9281 524.076 86.9854 524.296 88.0395C524.495 88.9961 524.709 89.9495 524.948 90.8967L524.957 90.925C525.039 91.246 525.124 91.5638 525.212 91.8816L525.215 91.891C525.458 92.7595 525.728 93.6216 526.033 94.4712C527.884 99.5908 531.109 104.745 529.923 110.06Z" fill="#9B9B9B"/>
<path d="M605.267 188.992C605.208 190.074 605.418 191.154 605.877 192.136C607.039 194.259 609.826 194.742 612.239 194.941C626.331 196.099 640.509 195.667 654.505 193.653C655.264 193.601 656.001 193.372 656.656 192.985C658.646 191.59 657.419 188.19 655.247 187.102C653.074 186.013 650.495 186.275 648.111 185.804C645.743 185.208 643.487 184.23 641.433 182.908C636.598 180.13 631.834 177.234 627.14 174.22C624.346 172.425 621.048 170.51 617.9 171.574C609.375 174.458 605.211 179.796 605.267 188.992Z" fill="#CCCACA"/>
<path d="M501.383 82.9891V82.9923C501.361 83.1244 501.339 83.2534 501.31 83.3825C501.276 83.5965 501.235 83.8135 501.194 84.0275C500.804 86.0256 500.325 88.0142 499.775 89.9903C498.264 95.4497 496.241 100.821 494.233 106.114C488.846 120.305 483.458 134.497 478.069 148.691C476.71 152.265 475.354 155.843 473.809 159.345C473.293 160.513 472.761 161.689 472.232 162.879C470.338 167.136 468.519 171.532 467.915 176.063C467.352 179.045 467.287 182.1 467.723 185.103C468.327 188.074 470.13 190.975 472.953 192.073C474.331 192.611 476.304 193.332 475.926 194.764C475.722 195.55 474.828 195.934 474.026 196.066C472.966 196.235 471.882 196.169 470.851 195.872C469.82 195.575 468.867 195.055 468.06 194.348C466.553 193.011 465.395 190.931 463.39 190.708C462.003 190.557 460.725 191.387 459.454 191.969C454.268 194.339 448.227 192.681 442.78 190.997C443.208 188.791 445.423 187.338 447.622 186.897C449.822 186.453 452.097 186.768 454.34 186.708C455.059 186.747 455.772 186.563 456.383 186.183C456.93 185.68 457.314 185.025 457.484 184.301C458.929 180.019 460.004 175.621 460.697 171.154C461.42 166.488 461.722 161.749 462.755 157.139C463.557 153.543 464.797 150.06 465.86 146.529C467.917 139.26 469.606 131.892 470.92 124.452C471.585 121.361 472.061 118.233 472.345 115.085C472.525 112.473 472.44 109.849 472.692 107.246C473.114 103.861 473.82 100.517 474.803 97.2496C475.766 93.6845 476.728 90.1215 477.688 86.5605C479.114 81.2899 480.643 75.8148 484.255 71.7179C485.51 70.2756 487.048 69.1063 488.773 68.2825C490.498 67.4587 492.373 66.9979 494.284 66.9287C495 66.9278 495.714 67.0049 496.414 67.1584C496.53 67.1867 496.647 67.215 496.763 67.2465C497.526 67.4458 498.257 67.7487 498.938 68.1465C500.052 67.4385 500.618 67.687 501.357 68.7789C502.006 69.9345 502.311 71.2508 502.238 72.5738C502.301 76.0654 502.014 79.5545 501.383 82.9891Z" fill="#FDB797"/>
<path d="M502.607 87.1615L502.56 87.2087L502.305 87.4636L499.775 89.9904L498.535 84.7827L494.284 66.9287C495 66.9278 495.715 67.0048 496.414 67.1584C496.444 66.9538 496.494 66.7526 496.562 66.5574L496.763 67.2465L498.205 72.1489L500.933 81.4567L501.383 82.9891V82.9922L502.607 87.1615Z" fill="#A6B9C2"/>
<path d="M518.66 30.2027C518.658 31.8559 518.33 33.4925 517.695 35.0189C517.061 36.5453 516.131 37.9316 514.96 39.0985C514.536 39.5233 514.081 39.9164 513.6 40.2749C511.429 41.9118 508.784 42.7978 506.064 42.799H490.968C487.633 42.7939 484.435 41.4651 482.078 39.1046C479.721 36.744 478.397 33.5446 478.397 30.2088C478.397 26.8731 479.721 23.6737 482.078 21.3131C484.435 18.9525 487.633 17.6238 490.968 17.6187H506.064C509.4 17.6273 512.597 18.9556 514.957 21.3133C517.317 23.671 518.649 26.8668 518.66 30.2027Z" fill="#3F525B"/>
<path d="M532.814 31.1517C539.939 31.1517 545.715 25.3757 545.715 18.2505C545.715 11.1254 539.939 5.34937 532.814 5.34937C525.689 5.34937 519.913 11.1254 519.913 18.2505C519.913 25.3757 525.689 31.1517 532.814 31.1517Z" fill="#3F525B"/>
<path opacity="0.1" d="M532.5 5.34937C532.341 5.34937 532.185 5.35565 532.028 5.3613C535.365 5.48263 538.525 6.89371 540.843 9.29765C543.161 11.7016 544.457 14.911 544.457 18.2505C544.457 21.5901 543.161 24.7995 540.843 27.2034C538.525 29.6074 535.365 31.0185 532.028 31.1398C532.185 31.1454 532.341 31.1517 532.5 31.1517C535.921 31.1517 539.203 29.7925 541.622 27.373C544.042 24.9536 545.401 21.6722 545.401 18.2505C545.401 14.8289 544.042 11.5475 541.622 9.12804C539.203 6.7086 535.921 5.34937 532.5 5.34937Z" fill="black"/>
<path opacity="0.1" d="M471.14 5.34937C471.299 5.34937 471.455 5.35565 471.612 5.3613C468.275 5.48263 465.115 6.89371 462.797 9.29765C460.478 11.7016 459.183 14.911 459.183 18.2505C459.183 21.5901 460.478 24.7995 462.797 27.2034C465.115 29.6074 468.275 31.0185 471.612 31.1398C471.455 31.1454 471.299 31.1517 471.14 31.1517C467.721 31.1487 464.442 29.7881 462.025 27.369C459.608 24.9499 458.25 21.6702 458.25 18.2505C458.25 14.8309 459.608 11.5512 462.025 9.13205C464.442 6.71294 467.721 5.35238 471.14 5.34937Z" fill="black"/>
<path opacity="0.1" d="M513.6 40.2749C511.429 41.9118 508.784 42.7978 506.064 42.7991H490.968C488.249 42.7978 485.604 41.9118 483.433 40.2749H513.6Z" fill="black"/>
<path d="M611.085 133.756C611.085 133.756 614.337 143.127 617.314 140.632L614.941 128.382L611.085 133.756Z" fill="#FBBEBE"/>
<path d="M1006.86 419.55C1009.89 420.651 1013.14 421.033 1016.34 420.667C1019.54 420.301 1022.61 419.196 1025.32 417.439C1028.02 415.683 1030.28 413.322 1031.91 410.544C1033.55 407.766 1034.51 404.647 1034.74 401.431C1034.96 398.216 1034.43 394.992 1033.2 392.015C1031.96 389.038 1030.05 386.388 1027.62 384.275C1025.19 382.161 1022.29 380.642 1019.17 379.837C1016.05 379.032 1012.79 378.962 1009.63 379.634L1010.16 390.347L1005.09 381.166C1000.11 383.503 996.271 387.72 994.404 392.889C993.741 394.699 993.338 396.595 993.207 398.519C992.887 403.032 994.047 407.527 996.511 411.322C998.976 415.117 1002.61 418.006 1006.86 419.55Z" fill="#A2D6A0"/>
<path d="M1031.94 543.793C1030.15 534.683 1037.9 526.606 1045.56 521.357C1053.22 516.107 1062.17 510.949 1064.78 502.04C1068.53 489.236 1057.35 477.51 1048.64 467.398C1042.18 459.894 1036.64 451.651 1032.12 442.841C1030.31 439.308 1028.64 435.615 1028.17 431.674C1027.48 425.999 1029.3 420.351 1031.14 414.938C1037.26 396.903 1043.8 379.02 1050.77 361.288" stroke="#BBC9D0" stroke-miterlimit="10"/>
<path d="M1007.72 416.792C1010.75 417.893 1013.99 418.276 1017.2 417.909C1020.4 417.543 1023.47 416.438 1026.17 414.682C1028.88 412.925 1031.13 410.565 1032.77 407.787C1034.4 405.009 1035.37 401.889 1035.59 398.673C1035.82 395.458 1035.29 392.234 1034.06 389.257C1032.82 386.28 1030.91 383.63 1028.48 381.517C1026.04 379.404 1023.15 377.884 1020.03 377.079C1016.91 376.274 1013.64 376.205 1010.49 376.877L1011.01 387.589L1005.94 378.408C1000.97 380.745 997.128 384.962 995.261 390.131C994.598 391.942 994.195 393.837 994.064 395.761C993.744 400.274 994.904 404.769 997.368 408.564C999.833 412.359 1003.47 415.248 1007.72 416.792V416.792Z" stroke="#BBC9D0" stroke-miterlimit="10"/>
<path d="M1029.4 357.588C1030.59 354.308 1032.58 351.38 1035.2 349.073C1037.82 346.767 1040.97 345.157 1044.38 344.391L1046.09 354.574L1049.27 343.879C1053.68 343.944 1057.95 345.41 1061.48 348.064C1065 350.718 1067.59 354.423 1068.87 358.645C1070.15 362.866 1070.06 367.386 1068.6 371.551C1067.15 375.715 1064.41 379.31 1060.78 381.815C1057.15 384.32 1052.81 385.607 1048.4 385.489C1043.99 385.371 1039.73 383.854 1036.24 381.158C1032.75 378.462 1030.2 374.726 1028.97 370.49C1027.74 366.253 1027.89 361.735 1029.4 357.588H1029.4Z" fill="#A2D6A0"/>
<path d="M1030.54 353.911C1031.73 350.631 1033.72 347.703 1036.34 345.396C1038.96 343.09 1042.12 341.479 1045.52 340.713L1047.23 350.897L1050.41 340.201C1054.82 340.267 1059.1 341.732 1062.62 344.387C1066.15 347.041 1068.73 350.746 1070.02 354.968C1071.3 359.189 1071.2 363.709 1069.75 367.873C1068.29 372.038 1065.55 375.633 1061.92 378.138C1058.29 380.643 1053.95 381.93 1049.54 381.812C1045.13 381.694 1040.88 380.177 1037.38 377.481C1033.89 374.785 1031.35 371.049 1030.12 366.813C1028.89 362.576 1029.03 358.058 1030.54 353.911H1030.54Z" stroke="#BBC9D0" stroke-miterlimit="10"/>
<path d="M1044.99 467.604C1049.79 469.347 1055.07 469.261 1059.82 467.363C1064.56 465.464 1068.44 461.886 1070.72 457.311C1072.99 452.736 1073.51 447.482 1072.16 442.553C1070.81 437.623 1067.7 433.362 1063.41 430.582L1060.97 438.801L1059.24 428.497C1059.22 428.489 1059.2 428.482 1059.18 428.477C1056.61 427.543 1053.89 427.125 1051.15 427.246C1048.42 427.367 1045.74 428.025 1043.27 429.182C1040.79 430.339 1038.56 431.973 1036.72 433.991C1034.87 436.008 1033.44 438.369 1032.51 440.94C1031.58 443.51 1031.16 446.238 1031.29 448.97C1031.41 451.701 1032.07 454.381 1033.23 456.857C1034.38 459.334 1036.02 461.557 1038.04 463.401C1040.06 465.245 1042.42 466.674 1044.99 467.604H1044.99Z" fill="#A2D6A0"/>
<path d="M1045.98 463.88C1050.78 465.622 1056.06 465.536 1060.81 463.638C1065.55 461.74 1069.43 458.162 1071.71 453.586C1073.98 449.011 1074.5 443.758 1073.15 438.828C1071.8 433.899 1068.69 429.638 1064.4 426.857L1061.96 435.076L1060.23 424.773C1060.21 424.764 1060.19 424.758 1060.17 424.752C1057.6 423.819 1054.88 423.4 1052.14 423.521C1049.41 423.642 1046.73 424.3 1044.26 425.457C1041.78 426.615 1039.55 428.249 1037.71 430.266C1035.86 432.284 1034.43 434.645 1033.5 437.215C1032.57 439.785 1032.15 442.514 1032.28 445.245C1032.4 447.976 1033.06 450.657 1034.22 453.133C1035.38 455.609 1037.01 457.833 1039.03 459.677C1041.05 461.521 1043.41 462.949 1045.98 463.88H1045.98Z" stroke="#BBC9D0" stroke-miterlimit="10"/>
<path d="M1023.32 502.167C1024.15 506.867 1026.57 511.14 1030.17 514.27C1033.77 517.4 1038.34 519.195 1043.11 519.356C1047.88 519.517 1052.56 518.032 1056.36 515.152C1060.17 512.272 1062.87 508.171 1064.01 503.537C1065.15 498.903 1064.66 494.018 1062.63 489.701C1060.59 485.384 1057.14 481.897 1052.84 479.826C1048.54 477.755 1043.66 477.225 1039.01 478.326C1034.37 479.426 1030.25 482.089 1027.33 485.87L1036.61 499.826L1023.94 492.418C1022.95 495.572 1022.74 498.915 1023.32 502.167Z" fill="#A2D6A0"/>
<path d="M1024.18 499.409C1025.01 504.109 1027.42 508.383 1031.03 511.512C1034.63 514.642 1039.2 516.438 1043.97 516.598C1048.74 516.759 1053.42 515.275 1057.22 512.394C1061.03 509.514 1063.73 505.413 1064.87 500.779C1066.01 496.145 1065.52 491.26 1063.48 486.943C1061.45 482.626 1057.99 479.14 1053.7 477.068C1049.4 474.997 1044.52 474.467 1039.87 475.568C1035.23 476.668 1031.1 479.332 1028.19 483.112L1037.46 497.068L1024.79 489.661C1023.81 492.814 1023.6 496.157 1024.18 499.409V499.409Z" stroke="#BBC9D0" stroke-miterlimit="10"/>
<path d="M9.00672 470.249C10.997 470.972 13.1282 471.224 15.2322 470.983C17.3362 470.742 19.3556 470.016 21.1312 468.862C22.9068 467.708 24.39 466.157 25.464 464.332C26.538 462.507 27.1734 460.457 27.3201 458.345C27.4668 456.232 27.1208 454.114 26.3094 452.158C25.498 450.202 24.2433 448.461 22.6442 447.072C21.0452 445.684 19.1455 444.686 17.0949 444.157C15.0444 443.628 12.8989 443.582 10.8277 444.024L11.17 451.062L7.84012 445.03C4.57204 446.566 2.04732 449.336 0.820762 452.732C0.38516 453.922 0.120346 455.167 0.0342206 456.431C-0.175962 459.396 0.586246 462.35 2.20534 464.843C3.82443 467.337 6.21217 469.234 9.00672 470.249Z" fill="#A2D6A0"/>
<path d="M25.483 551.879C24.3076 545.893 29.401 540.587 34.4322 537.138C39.4633 533.688 45.3419 530.3 47.0586 524.446C49.5257 516.034 42.1769 508.33 36.4571 501.686C32.2136 496.756 28.5695 491.34 25.6009 485.551C24.3103 483.278 23.4312 480.794 23.0042 478.215C22.5532 474.486 23.7512 470.775 24.9581 467.219C28.9787 455.37 33.2775 443.62 37.8543 431.969" stroke="#BBC9D0" stroke-miterlimit="10"/>
<path d="M9.56997 468.437C11.5603 469.16 13.6914 469.412 15.7954 469.171C17.8995 468.93 19.9188 468.204 21.6944 467.05C23.47 465.896 24.9533 464.345 26.0272 462.52C27.1012 460.695 27.7366 458.645 27.8833 456.533C28.03 454.42 27.684 452.302 26.8726 450.346C26.0612 448.39 24.8065 446.649 23.2075 445.26C21.6084 443.872 19.7088 442.874 17.6582 442.345C15.6076 441.816 13.4622 441.77 11.391 442.212L11.7332 449.25L8.40336 443.218C5.13528 444.754 2.61055 447.524 1.38399 450.92C0.948397 452.11 0.683587 453.355 0.597457 454.619C0.38726 457.584 1.14946 460.538 2.76856 463.031C4.38766 465.525 6.7754 467.422 9.56997 468.437V468.437Z" stroke="#BBC9D0" stroke-miterlimit="10"/>
<path d="M23.8116 429.539C24.5927 427.384 25.9037 425.46 27.6236 423.945C29.3436 422.429 31.4174 421.371 33.6537 420.868L34.7796 427.559L36.867 420.531C39.7652 420.574 42.5747 421.537 44.89 423.281C47.2052 425.025 48.9064 427.459 49.7479 430.233C50.5894 433.007 50.5276 435.976 49.5715 438.712C48.6154 441.449 46.8145 443.81 44.4287 445.456C42.043 447.102 39.1958 447.948 36.2984 447.87C33.4009 447.793 30.603 446.796 28.3088 445.025C26.0145 443.254 24.3425 440.799 23.5341 438.016C22.7258 435.232 22.823 432.264 23.8116 429.539Z" fill="#A2D6A0"/>
<path d="M24.5626 427.123C25.3437 424.968 26.6546 423.044 28.3746 421.529C30.0946 420.013 32.1683 418.955 34.4047 418.452L35.5306 425.143L37.618 418.115C40.5161 418.158 43.3257 419.121 45.6409 420.865C47.9562 422.609 49.6574 425.043 50.4989 427.817C51.3403 430.591 51.2786 433.56 50.3225 436.296C49.3664 439.033 47.5655 441.394 45.1797 443.04C42.7939 444.686 39.9468 445.532 37.0493 445.454C34.1519 445.377 31.354 444.38 29.0597 442.609C26.7654 440.838 25.0934 438.383 24.2851 435.599C23.4768 432.816 23.574 429.848 24.5626 427.123V427.123Z" stroke="#BBC9D0" stroke-miterlimit="10"/>
<path d="M34.0568 501.822C37.2133 502.967 40.6806 502.91 43.798 501.663C46.9154 500.416 49.4649 498.065 50.9605 495.059C52.4561 492.052 52.7932 488.601 51.9076 485.362C51.022 482.124 48.9756 479.324 46.1585 477.497L44.5546 482.897L43.4172 476.127C43.406 476.122 43.3944 476.118 43.3824 476.114C41.6941 475.5 39.9013 475.225 38.1066 475.304C36.3118 475.384 34.5503 475.816 32.9226 476.576C31.295 477.336 29.8331 478.41 28.6206 479.736C27.408 481.061 26.4686 482.613 25.856 484.302C25.2433 485.99 24.9695 487.783 25.0502 489.578C25.1308 491.373 25.5643 493.134 26.3259 494.761C27.0875 496.388 28.1623 497.849 29.4888 499.061C30.8153 500.272 32.3676 501.21 34.0568 501.822Z" fill="#A2D6A0"/>
<path d="M34.7075 499.374C37.8639 500.519 41.3313 500.463 44.4487 499.216C47.5661 497.968 50.1156 495.618 51.6112 492.611C53.1067 489.605 53.4439 486.154 52.5583 482.915C51.6727 479.676 49.6263 476.877 46.8092 475.05L45.2052 480.45L44.0679 473.68C44.0567 473.675 44.045 473.671 44.0331 473.667C42.3451 473.055 40.5531 472.781 38.7593 472.861C36.9655 472.941 35.205 473.374 33.5785 474.135C30.2935 475.671 27.7533 478.449 26.5166 481.858C25.28 485.267 25.4482 489.028 26.9843 492.313C28.5204 495.598 31.2985 498.138 34.7075 499.374V499.374Z" stroke="#BBC9D0" stroke-miterlimit="10"/>
<path d="M19.8211 524.53C20.3639 527.618 21.9519 530.426 24.3189 532.482C26.686 534.538 29.6881 535.718 32.8217 535.823C35.9554 535.929 39.03 534.954 41.5301 533.061C44.0301 531.169 45.8034 528.475 46.5526 525.43C47.3018 522.385 46.9814 519.176 45.6451 516.339C44.3088 513.503 42.0378 511.212 39.213 509.852C36.3882 508.491 33.1815 508.143 30.1305 508.866C27.0796 509.589 24.37 511.339 22.4561 513.822L28.5485 522.992L20.2241 518.125C19.5786 520.197 19.4404 522.393 19.8211 524.53Z" fill="#A2D6A0"/>
<path d="M20.3844 522.718C20.9271 525.806 22.5151 528.613 24.8822 530.67C27.2492 532.726 30.2513 533.906 33.385 534.011C36.5186 534.117 39.5933 533.142 42.0933 531.249C44.5933 529.357 46.3666 526.663 47.1158 523.618C47.8651 520.573 47.5447 517.364 46.2083 514.527C44.872 511.691 42.601 509.4 39.7762 508.039C36.9515 506.679 33.7447 506.331 30.6938 507.054C27.6428 507.777 24.9332 509.527 23.0194 512.01L29.1117 521.18L20.7873 516.313C20.1419 518.385 20.0037 520.581 20.3844 522.718V522.718Z" stroke="#BBC9D0" stroke-miterlimit="10"/>
<path d="M480.945 341.115C490.334 341.115 497.945 331.266 497.945 319.115C497.945 306.965 490.334 297.115 480.945 297.115C471.556 297.115 463.945 306.965 463.945 319.115C463.945 331.266 471.556 341.115 480.945 341.115Z" fill="#FFC58F"/>
<path d="M573.445 341.615C582.834 341.615 590.445 331.766 590.445 319.615C590.445 307.465 582.834 297.615 573.445 297.615C564.056 297.615 556.445 307.465 556.445 319.615C556.445 331.766 564.056 341.615 573.445 341.615Z" fill="#FFC58F"/>
<path d="M560.445 384.615C560.445 394.555 546.565 402.615 529.445 402.615C512.325 402.615 498.445 394.555 498.445 384.615C498.445 376.005 508.855 368.805 522.765 367.045C524.98 366.753 527.212 366.61 529.445 366.615C533.188 366.603 536.921 367.006 540.575 367.816C552.195 370.406 560.445 376.955 560.445 384.615Z" fill="#FFC58F"/>
<path d="M484.945 336.115C494.334 336.115 501.945 326.266 501.945 314.115C501.945 301.965 494.334 292.115 484.945 292.115C475.556 292.115 467.945 301.965 467.945 314.115C467.945 326.266 475.556 336.115 484.945 336.115Z" stroke="#3F3D56" stroke-miterlimit="10"/>
<path d="M577.445 336.615C586.834 336.615 594.445 326.766 594.445 314.615C594.445 302.465 586.834 292.615 577.445 292.615C568.056 292.615 560.445 302.465 560.445 314.615C560.445 326.766 568.056 336.615 577.445 336.615Z" stroke="#3F3D56" stroke-miterlimit="10"/>
<path d="M533.445 397.615C550.566 397.615 564.445 389.557 564.445 379.615C564.445 369.674 550.566 361.615 533.445 361.615C516.324 361.615 502.445 369.674 502.445 379.615C502.445 389.557 516.324 397.615 533.445 397.615Z" stroke="#3F3D56" stroke-miterlimit="10"/>
<path d="M540.945 369.316C540.953 370.573 540.481 371.786 539.625 372.707C539.221 373.149 538.73 373.502 538.182 373.744C537.635 373.986 537.044 374.113 536.445 374.115H526.445C525.213 374.073 524.048 373.544 523.205 372.644C522.361 371.745 521.909 370.548 521.945 369.316C521.94 368.341 522.225 367.386 522.765 366.574C524.978 366.263 527.21 366.109 529.445 366.115C533.193 366.103 536.928 366.533 540.575 367.396C540.822 368.005 540.948 368.658 540.945 369.316Z" fill="white"/>
<path d="M484.945 313.115C487.707 313.115 489.945 310.877 489.945 308.115C489.945 305.354 487.707 303.115 484.945 303.115C482.184 303.115 479.945 305.354 479.945 308.115C479.945 310.877 482.184 313.115 484.945 313.115Z" fill="white"/>
<path d="M577.945 313.115C580.707 313.115 582.945 310.877 582.945 308.115C582.945 305.354 580.707 303.115 577.945 303.115C575.184 303.115 572.945 305.354 572.945 308.115C572.945 310.877 575.184 313.115 577.945 313.115Z" fill="white"/>
<path opacity="0.3" d="M582.945 360.115C585.707 360.115 587.945 357.877 587.945 355.115C587.945 352.354 585.707 350.115 582.945 350.115C580.184 350.115 577.945 352.354 577.945 355.115C577.945 357.877 580.184 360.115 582.945 360.115Z" fill="#BBC9D0"/>
<path opacity="0.3" d="M460.945 360.115C463.707 360.115 465.945 357.877 465.945 355.115C465.945 352.354 463.707 350.115 460.945 350.115C458.184 350.115 455.945 352.354 455.945 355.115C455.945 357.877 458.184 360.115 460.945 360.115Z" fill="#BBC9D0"/>
</svg>
