<svg viewBox="0 0 340 234" fill="none" xmlns="http://www.w3.org/2000/svg">
<path d="M318.37 184.81C324.176 202.068 268.288 241.498 169.958 219.487C90.789 201.764 21.5465 194.258 21.5465 184.81C21.5465 175.362 87.9927 185.273 169.958 185.273C251.924 185.273 315.31 175.714 318.37 184.81Z" fill="#4F6773"/>
<path opacity="0.1" d="M318.37 184.81C324.176 202.068 268.288 241.498 169.958 219.487C90.789 201.764 21.5465 194.258 21.5465 184.81C21.5465 175.362 87.9927 185.273 169.958 185.273C251.924 185.273 315.31 175.714 318.37 184.81Z" fill="#263137"/>
<path d="M318.37 184.81C324.176 202.068 268.288 223.929 169.958 201.917C90.789 184.195 21.5465 194.258 21.5465 184.81C21.5465 175.362 87.9927 167.703 169.958 167.703C251.924 167.703 315.31 175.714 318.37 184.81Z" fill="#3F525B"/>
<path opacity="0.1" d="M217.681 197.204C224.02 197.204 229.16 195.719 229.16 193.887C229.16 192.055 224.02 190.569 217.681 190.569C211.341 190.569 206.202 192.055 206.202 193.887C206.202 195.719 211.341 197.204 217.681 197.204Z" fill="#3F525B"/>
<path opacity="0.1" d="M264.479 197.204C270.818 197.204 275.957 195.719 275.957 193.887C275.957 192.055 270.818 190.569 264.479 190.569C258.139 190.569 253 192.055 253 193.887C253 195.719 258.139 197.204 264.479 197.204Z" fill="#3F525B"/>
<path opacity="0.1" d="M170 187.62C190.725 187.62 207.527 183.825 207.527 179.142C207.527 174.46 190.725 170.664 170 170.664C149.275 170.664 132.473 174.46 132.473 179.142C132.473 183.825 149.275 187.62 170 187.62Z" fill="#3F525B"/>
<path d="M336 153.34V0H4V153.34H157.197V173.838C149.545 174.603 144.394 176.031 144.394 177.668C144.394 180.111 155.858 182.091 170 182.091C184.142 182.091 195.606 180.111 195.606 177.668C195.606 176.031 190.455 174.603 182.803 173.838V153.34H336Z" fill="#263137"/>
<path d="M318.782 5.37219H21.218V142.807H318.782V5.37219Z" fill="#F2F2F2"/>
<path opacity="0.1" d="M318.782 5.52905C318.782 5.52905 195.165 16.2186 172.649 57.5025C150.133 98.7863 21.218 142.65 21.218 142.65H318.782V5.52905Z" fill="black"/>
<path d="M263.263 71.141V81.3324H217.572V71.7641H216.248V193.887H217.572V172.024H263.263V193.887H264.587V71.141H263.263ZM263.263 82.4382V99.2494H217.572V82.4382L263.263 82.4382ZM217.572 135.084V118.273H263.263V135.084H217.572ZM263.263 136.19V153.001H217.572V136.19H263.263ZM217.572 117.167V100.355H263.263V117.167H217.572ZM217.572 170.918V154.107H263.263V170.918H217.572Z" fill="#2F2E41"/>
<path d="M203.165 73.5676V75.0952C203.165 75.0952 201.858 75.5316 201.858 77.2774C201.858 79.0232 200.813 85.57 200.813 85.57C200.813 85.57 202.642 86.8793 204.211 86.4429C205.079 86.2228 205.881 85.8508 206.563 85.3517L206.824 78.5868L205.779 76.841V73.7858L203.165 73.5676Z" fill="#FFC58F"/>
<path d="M253.167 12.9012C253.167 12.9012 248.621 13.3376 248.621 15.0834C248.621 16.8292 244.985 23.376 244.985 23.376C244.985 23.376 251.349 24.6853 256.803 24.2489C262.258 23.8124 264.986 23.1577 264.986 23.1577L265.895 16.3928L262.258 14.647L253.167 12.9012Z" fill="#FFC58F"/>
<path d="M253.61 28.1769V24.0307C253.61 24.0307 248.121 14.8652 252.565 14.8652C257.008 14.8652 257.531 23.1578 257.531 23.1578V29.0498L253.61 28.1769Z" fill="#FFB8B8"/>
<path d="M206.563 71.6037C206.563 71.6037 203.688 70.2943 203.165 71.6037C202.642 72.913 201.074 75.7499 203.165 75.9681C205.256 76.1864 207.347 74.6588 207.347 74.6588L206.563 71.6037Z" fill="#FFB8B8"/>
<path d="M220.713 80.443C220.713 80.443 219.139 82.1784 221.423 99.1092C223.706 116.04 222.391 128.368 226.726 128.199C226.726 128.199 225.594 131.87 229.278 132.006C232.961 132.141 234.644 132.354 234.931 131.506C235.218 130.658 235.667 126.734 234.666 126.773C234.666 126.773 234.728 127.887 235.146 123.406C235.564 118.926 234.381 97.7671 235.893 94.918L241.804 105.011C241.804 105.011 242.068 109.744 243.193 111.932C244.318 114.12 246.702 126.862 246.702 126.862L246.477 128.824C246.477 128.824 254.542 129.626 254.814 128.499C255.085 127.372 254.991 125.702 254.627 125.158C254.262 124.614 254.262 124.614 254.867 123.475C255.135 123.046 255.289 122.575 255.32 122.092C255.35 121.61 255.257 121.127 255.045 120.678C254.664 119.855 253.653 101.759 253.653 101.759C253.653 101.759 251.756 79.7911 247.692 78.8334C243.628 77.8758 220.713 80.443 220.713 80.443Z" fill="#2F2E41"/>
<path d="M227.819 129.83L225.369 133.832C225.369 133.832 221.131 132.742 222.144 135.911C226.212 136.017 230.284 135.811 234.307 135.297C234.307 135.297 236.006 135.789 236.292 134.941C236.579 134.093 235.249 131.215 234.248 131.254C233.248 131.293 227.819 129.83 227.819 129.83Z" fill="#2F2E41"/>
<path d="M247.097 127.963C247.097 127.963 244.71 133.078 245.726 133.318C246.742 133.557 255.807 134.32 256.49 134.572C257.172 134.824 260.522 134.973 260.763 133.289C261.003 131.606 258.971 131.127 258.971 131.127C258.971 131.127 255.272 130.713 254.116 127.968C252.96 125.223 247.097 127.963 247.097 127.963Z" fill="#2F2E41"/>
<path d="M224.461 38.9393C228.317 38.9393 231.443 36.3294 231.443 33.11C231.443 29.8906 228.317 27.2807 224.461 27.2807C220.605 27.2807 217.479 29.8906 217.479 33.11C217.479 36.3294 220.605 38.9393 224.461 38.9393Z" fill="#FFB8B8"/>
<path d="M220.786 35.8713C220.786 35.8713 222.623 43.8482 221.889 45.3822C221.154 46.9163 232.178 44.7686 232.178 44.7686C232.178 44.7686 229.973 36.7917 230.34 34.9508C230.708 33.11 220.786 35.8713 220.786 35.8713Z" fill="#FFB8B8"/>
<path d="M224.249 25.91C223.668 25.8221 223.071 25.8441 222.502 25.9743C222.047 26.1427 221.627 26.3724 221.261 26.6541C220.596 27.0965 219.886 27.4893 219.139 27.828C218.515 28.0522 217.953 28.3812 217.487 28.7944C217.291 29.0202 217.134 29.2682 217.021 29.531C216.305 31.0579 216.113 32.7213 216.466 34.3345C216.505 34.5637 216.588 34.7863 216.71 34.9941C217.092 35.5816 217.936 35.8131 218.646 36.1211C219.996 36.7058 221.018 37.6904 222.125 38.5605C222.536 38.9031 222.998 39.2003 223.499 39.4448C225.078 40.1634 227.007 39.929 228.779 39.6749C228.905 39.6747 229.029 39.6537 229.145 39.6132C229.261 39.5727 229.366 39.5135 229.454 39.4389C229.543 39.3644 229.612 39.276 229.66 39.1788C229.707 39.0816 229.73 38.9776 229.729 38.8728L231.128 33.6201C231.381 32.8419 231.502 32.0376 231.486 31.2312C231.389 29.9561 230.562 28.1899 229.441 27.2841C228.135 26.2288 225.956 26.0608 224.249 25.91Z" fill="#2F2E41"/>
<path d="M219.109 45.8532C219.109 45.8532 219.632 42.798 222.768 42.5798C224.542 42.44 226.294 42.1474 227.996 41.7069C228.257 41.7069 231.655 41.9251 233.223 43.2345C233.223 43.2345 234.269 44.5438 234.791 43.6709C235.314 42.798 235.314 42.3616 236.36 42.798C237.405 43.2345 237.405 41.4887 239.235 41.7069C241.064 41.9251 245.769 51.7452 245.769 51.7452L244.201 53.2728C244.201 53.2728 242.11 65.0569 245.769 70.0761C249.428 75.0952 250.996 80.5508 247.337 81.642C243.678 82.7331 218.063 92.5532 219.109 86.4429C220.154 80.3326 219.37 70.7307 218.325 70.5125C217.279 70.2943 211.529 53.0546 211.529 53.0546C211.76 51.96 212.31 50.9297 213.131 50.0545C213.951 49.1792 215.017 48.4858 216.234 48.0354C220.416 46.5078 219.109 45.8532 219.109 45.8532Z" fill="#718F9D"/>
<path d="M237.928 42.5797L239.235 41.7068C239.235 41.7068 241.587 41.7068 241.848 41.2704C242.11 40.8339 243.417 40.8339 244.462 40.3975C245.508 39.961 244.201 39.3063 245.508 38.8699C246.815 38.4334 246.815 38.8699 246.815 37.7788C246.815 36.6876 250.212 35.5965 250.474 34.2872C250.735 32.9778 253.349 26.8676 253.349 26.8676L258.315 28.1769L257.008 36.033C257.008 36.033 257.008 39.961 254.656 42.5797C252.303 45.1984 247.076 51.7451 244.462 51.9634C241.848 52.1816 237.928 42.5797 237.928 42.5797Z" fill="#718F9D"/>
<path d="M213.097 51.9634L211.529 53.0546C211.529 53.0546 211.006 57.8555 211.006 58.0737C211.006 58.2919 211.529 60.9106 211.006 61.1289C210.484 61.3471 209.438 65.7116 209.699 65.9298V66.5845L206.04 71.3854V75.9681L214.665 71.3854C214.665 71.3854 219.632 70.949 218.847 67.2391C218.063 63.5293 213.097 51.9634 213.097 51.9634Z" fill="#718F9D"/>
<path d="M170 153.34C172.682 153.34 174.856 151.525 174.856 149.285C174.856 147.046 172.682 145.231 170 145.231C167.318 145.231 165.144 147.046 165.144 149.285C165.144 151.525 167.318 153.34 170 153.34Z" fill="#BBC9D0"/>
</svg>
