<svg viewBox="0 0 17 16" fill="currentColor" xmlns="http://www.w3.org/2000/svg">
<path d="M8.50016 15.5599C8.3123 15.5599 8.13213 15.4852 7.9993 15.3524C7.86646 15.2196 7.79183 15.0394 7.79183 14.8515V13.4584H4.9585C4.58277 13.4584 4.22244 13.3091 3.95676 13.0434C3.69108 12.7778 3.54183 12.4174 3.54183 12.0417V4.95837C3.54183 4.58265 3.69108 4.22232 3.95676 3.95664C4.22244 3.69096 4.58277 3.54171 4.9585 3.54171H14.8752C15.2509 3.54171 15.6112 3.69096 15.8769 3.95664C16.1426 4.22232 16.2918 4.58265 16.2918 4.95837V12.0417C16.2918 12.4174 16.1426 12.7778 15.8769 13.0434C15.6112 13.3091 15.2509 13.4584 14.8752 13.4584H11.971L9.35016 15.3544C9.2085 15.4819 9.0385 15.5599 8.85433 15.5599H8.50016ZM2.12516 10.625H0.708496V2.12504C0.708496 1.74932 0.857752 1.38898 1.12343 1.12331C1.3891 0.85763 1.74944 0.708374 2.12516 0.708374H13.4585V2.12504H2.12516V10.625Z" fill="currentColor"/>
</svg>