<svg viewBox="0 0 16 16" fill="currentColor" xmlns="http://www.w3.org/2000/svg">
<path d="M9.297 7.99998C9.297 8.12498 9.234 8.26598 9.141 8.35898L1.86 15.64C1.766 15.734 1.626 15.796 1.501 15.796C1.376 15.796 1.235 15.733 1.142 15.64L0.361002 14.859C0.267002 14.765 0.205002 14.625 0.205002 14.5C0.205002 14.375 0.268002 14.234 0.361002 14.141L6.502 7.99998L0.361002 1.85898C0.267002 1.76498 0.205002 1.62498 0.205002 1.49998C0.205002 1.37498 0.268002 1.23398 0.361002 1.14098L1.142 0.35998C1.236 0.26598 1.376 0.203979 1.501 0.203979C1.626 0.203979 1.767 0.26698 1.86 0.35998L9.141 7.64098C9.235 7.73498 9.297 7.87498 9.297 7.99998V7.99998ZM15.297 7.99998C15.297 8.12498 15.234 8.26598 15.141 8.35898L7.86 15.64C7.766 15.734 7.626 15.796 7.501 15.796C7.376 15.796 7.235 15.733 7.142 15.64L6.361 14.859C6.267 14.765 6.205 14.625 6.205 14.5C6.205 14.375 6.268 14.234 6.361 14.141L12.502 7.99998L6.361 1.85898C6.267 1.76498 6.205 1.62498 6.205 1.49998C6.205 1.37498 6.268 1.23398 6.361 1.14098L7.142 0.35998C7.236 0.26598 7.376 0.203979 7.501 0.203979C7.626 0.203979 7.767 0.26698 7.86 0.35998L15.141 7.64098C15.235 7.73498 15.297 7.87498 15.297 7.99998V7.99998Z"/>
</svg>
