<svg  viewBox="0 0 332 226" fill="none" xmlns="http://www.w3.org/2000/svg">
<path opacity="0.5" d="M134.686 0H20.0257C19.1498 0 18.4398 0.610685 18.4398 1.364V151.823C18.4398 152.576 19.1498 153.187 20.0257 153.187H134.686C135.561 153.187 136.272 152.576 136.272 151.823V1.364C136.272 0.610685 135.561 0 134.686 0Z" fill="url(#paint0_linear)"/>
<path d="M133.174 1.12451H21.5342C20.6583 1.12451 19.9482 1.7352 19.9482 2.48851V149.849C19.9482 150.603 20.6583 151.213 21.5342 151.213H133.174C134.049 151.213 134.76 150.603 134.76 149.849V2.48851C134.76 1.7352 134.049 1.12451 133.174 1.12451Z" fill="#F2F2F2"/>
<path opacity="0.5" d="M52.8063 28.7744H33.0167C32.1408 28.7744 31.4307 29.3851 31.4307 30.1384V45.1849C31.4307 45.9382 32.1408 46.5489 33.0167 46.5489H52.8063C53.6822 46.5489 54.3923 45.9382 54.3923 45.1849V30.1384C54.3923 29.3851 53.6822 28.7744 52.8063 28.7744Z" fill="#718F9D"/>
<path d="M122.287 28.7744H62.2764C61.7275 28.7744 61.2825 29.1571 61.2825 29.6292V29.8959C61.2825 30.368 61.7275 30.7507 62.2764 30.7507H122.287C122.836 30.7507 123.281 30.368 123.281 29.8959V29.6292C123.281 29.1571 122.836 28.7744 122.287 28.7744Z" fill="#E0E0E0"/>
<path d="M111.826 34.6972H62.2764C61.7275 34.6972 61.2825 35.0799 61.2825 35.552V35.8187C61.2825 36.2908 61.7275 36.6735 62.2764 36.6735H111.826C112.375 36.6735 112.82 36.2908 112.82 35.8187V35.552C112.82 35.0799 112.375 34.6972 111.826 34.6972Z" fill="#E0E0E0"/>
<path opacity="0.5" d="M52.8063 56.4212H33.0167C32.1408 56.4212 31.4307 57.0319 31.4307 57.7852V72.8317C31.4307 73.585 32.1408 74.1957 33.0167 74.1957H52.8063C53.6822 74.1957 54.3923 73.585 54.3923 72.8317V57.7852C54.3923 57.0319 53.6822 56.4212 52.8063 56.4212Z" fill="#607D8B"/>
<path d="M122.287 56.4212H62.2764C61.7275 56.4212 61.2825 56.8039 61.2825 57.276V57.5427C61.2825 58.0148 61.7275 58.3975 62.2764 58.3975H122.287C122.836 58.3975 123.281 58.0148 123.281 57.5427V57.276C123.281 56.8039 122.836 56.4212 122.287 56.4212Z" fill="#E0E0E0"/>
<path d="M122.287 62.3441H62.2764C61.7275 62.3441 61.2825 62.7268 61.2825 63.1988V63.4656C61.2825 63.9376 61.7275 64.3203 62.2764 64.3203H122.287C122.836 64.3203 123.281 63.9376 123.281 63.4656V63.1988C123.281 62.7268 122.836 62.3441 122.287 62.3441Z" fill="#E0E0E0"/>
<path opacity="0.5" d="M52.8063 84.068H33.0167C32.1408 84.068 31.4307 84.6787 31.4307 85.432V100.478C31.4307 101.232 32.1408 101.842 33.0167 101.842H52.8063C53.6822 101.842 54.3923 101.232 54.3923 100.478V85.432C54.3923 84.6787 53.6822 84.068 52.8063 84.068Z" fill="#607D8B"/>
<path d="M122.287 84.068H62.2764C61.7275 84.068 61.2825 84.4507 61.2825 84.9228V85.1895C61.2825 85.6616 61.7275 86.0443 62.2764 86.0443H122.287C122.836 86.0443 123.281 85.6616 123.281 85.1895V84.9228C123.281 84.4507 122.836 84.068 122.287 84.068Z" fill="#E0E0E0"/>
<path d="M67.1789 89.9938H62.2764C61.7275 89.9938 61.2825 90.3765 61.2825 90.8486V91.1154C61.2825 91.5874 61.7275 91.9701 62.2764 91.9701H67.1789C67.7278 91.9701 68.1728 91.5874 68.1728 91.1154V90.8486C68.1728 90.3765 67.7278 89.9938 67.1789 89.9938Z" fill="#E0E0E0"/>
<path opacity="0.5" d="M206.242 49.3223H93.3477C92.4718 49.3223 91.7617 49.933 91.7617 50.6863V138.001C91.7617 138.754 92.4718 139.365 93.3477 139.365H206.242C207.118 139.365 207.828 138.754 207.828 138.001V50.6863C207.828 49.933 207.118 49.3223 206.242 49.3223Z" fill="url(#paint1_linear)"/>
<path d="M204.645 50.2256H95.1416C94.2657 50.2256 93.5556 50.8363 93.5556 51.5896V136.076C93.5556 136.829 94.2657 137.44 95.1416 137.44H204.645C205.521 137.44 206.231 136.829 206.231 136.076V51.5896C206.231 50.8363 205.521 50.2256 204.645 50.2256Z" fill="white"/>
<path opacity="0.5" d="M127.242 68.9639H106.205C105.329 68.9639 104.619 69.5746 104.619 70.3279V86.3383C104.619 87.0916 105.329 87.7023 106.205 87.7023H127.242C128.118 87.7023 128.828 87.0916 128.828 86.3383V70.3279C128.828 69.5746 128.118 68.9639 127.242 68.9639Z" fill="#607D8B"/>
<path d="M200.405 68.9639H137.142C136.562 68.9639 136.092 69.3683 136.092 69.8672V70.143C136.092 70.6419 136.562 71.0463 137.142 71.0463H200.405C200.985 71.0463 201.456 70.6419 201.456 70.143V69.8672C201.456 69.3683 200.985 68.9639 200.405 68.9639Z" fill="#E0E0E0"/>
<path d="M200.405 75.2111H137.142C136.562 75.2111 136.092 75.6155 136.092 76.1143V76.3902C136.092 76.889 136.562 77.2934 137.142 77.2934H200.405C200.985 77.2934 201.456 76.889 201.456 76.3902V76.1143C201.456 75.6155 200.985 75.2111 200.405 75.2111Z" fill="#E0E0E0"/>
<path d="M200.405 97.8808H103.248C102.668 97.8808 102.198 98.2852 102.198 98.7841V99.0599C102.198 99.5588 102.668 99.9632 103.248 99.9632H200.405C200.985 99.9632 201.456 99.5588 201.456 99.0599V98.7841C201.456 98.2852 200.985 97.8808 200.405 97.8808Z" fill="#E0E0E0"/>
<path d="M200.405 104.128H103.248C102.668 104.128 102.198 104.532 102.198 105.031V105.307C102.198 105.806 102.668 106.21 103.248 106.21H200.405C200.985 106.21 201.456 105.806 201.456 105.307V105.031C201.456 104.532 200.985 104.128 200.405 104.128Z" fill="#E0E0E0"/>
<path d="M200.405 112.454H103.248C102.668 112.454 102.198 112.859 102.198 113.358V113.634C102.198 114.132 102.668 114.537 103.248 114.537H200.405C200.985 114.537 201.456 114.132 201.456 113.634V113.358C201.456 112.859 200.985 112.454 200.405 112.454Z" fill="#E0E0E0"/>
<path d="M176.196 118.702H103.248C102.668 118.702 102.198 119.106 102.198 119.605V119.881C102.198 120.38 102.668 120.784 103.248 120.784H176.196C176.776 120.784 177.246 120.38 177.246 119.881V119.605C177.246 119.106 176.776 118.702 176.196 118.702Z" fill="#E0E0E0"/>
<path opacity="0.5" d="M210.633 83.0162L211.046 81.434L210.468 82.9799C195.435 79.488 179.939 77.6907 164.368 77.633C52.179 77.0631 0 162.337 0 162.337L106.318 210.581C106.318 210.581 119.358 175.802 165.672 176.935C168.858 177.01 172.036 177.249 175.188 177.651L161.098 215.397C160.495 216.134 160.071 216.968 159.851 217.849C159.63 218.729 159.617 219.639 159.813 220.524C160.009 221.409 160.41 222.251 160.991 223C161.572 223.75 162.323 224.391 163.198 224.886C164.073 225.382 165.054 225.721 166.085 225.884C167.115 226.047 168.173 226.03 169.195 225.835C170.218 225.64 171.184 225.27 172.038 224.747C172.891 224.225 173.613 223.56 174.163 222.793V222.775C174.894 221.753 175.292 220.58 175.315 219.38C175.315 219.177 175.315 218.974 175.29 218.774L185.476 179.63C215.821 187.656 225.016 210.578 225.016 210.578L332 164.58C332 164.58 291.822 101.979 210.633 83.0162Z" fill="url(#paint2_linear)"/>
<path d="M164.389 78.5787C53.631 78.024 2.11462 162.204 2.11462 162.204L107.079 209.826C107.079 209.826 119.957 175.49 165.679 176.596C168.9 176.671 172.112 176.916 175.297 177.329L210.055 83.8952C195.167 80.4237 179.815 78.6364 164.389 78.5787Z" fill="#4F6773"/>
<path d="M210.055 83.8952L175.297 177.338C213.227 182.294 224.276 209.826 224.276 209.826L329.885 164.42C329.885 164.42 290.204 102.615 210.055 83.8952Z" fill="#E0E0E0"/>
<path d="M175.185 217.922L210.471 82.3312L161.157 214.588C160.553 215.315 160.126 216.14 159.901 217.012C159.676 217.885 159.658 218.788 159.849 219.667C160.039 220.545 160.433 221.382 161.008 222.127C161.583 222.871 162.327 223.508 163.195 224C164.063 224.491 165.038 224.827 166.06 224.987C167.083 225.147 168.132 225.128 169.146 224.931C170.16 224.734 171.117 224.363 171.96 223.841C172.803 223.318 173.515 222.655 174.053 221.89V221.872C174.775 220.863 175.168 219.706 175.192 218.522C175.213 218.313 175.202 218.119 175.185 217.922Z" fill="#263137"/>
<path opacity="0.7" d="M187.94 78.418L187.016 78.2695L188.838 72.5104C191.707 54.0206 180.87 52.1443 176.806 52.0807C176.339 51.9336 175.862 51.8091 175.378 51.7078V49.5254C177.935 48.9829 180.251 47.8076 182.039 46.1451C183.828 44.4827 185.01 42.4058 185.441 40.1714H185.476C186.121 40.1714 186.646 39.3257 186.646 38.283C186.671 37.7303 186.492 37.1849 186.135 36.725C186.182 36.3209 186.205 35.9167 186.205 35.5126C186.207 33.8806 185.822 32.2655 185.075 30.7654C184.328 29.2652 183.234 27.9113 181.86 26.786C181.672 25.9797 181.337 25.2041 180.866 24.4884C179.869 22.9728 178.209 21.4027 178.885 19.7629L174.504 20.1509L174.462 17.6684C173.095 17.8806 172.52 19.2415 171.71 20.2115C169.757 22.5455 165.841 22.8698 163.251 24.6885C162.37 25.2947 160.389 27.1861 160.766 28.4198C159.026 30.4783 158.091 32.9586 158.095 35.5035C158.095 35.9076 158.118 36.3118 158.165 36.7159C157.808 37.1758 157.629 37.7212 157.654 38.2739C157.654 39.3166 158.179 40.1623 158.824 40.1623H158.86C159.29 42.3967 160.473 44.4736 162.261 46.1361C164.049 47.7986 166.365 48.9738 168.922 49.5163V51.6987C168.438 51.8001 167.962 51.9245 167.494 52.0716C163.431 52.1352 152.593 53.9994 155.462 72.5013L157.284 78.2604L156.851 78.3301C156.206 78.4336 155.591 78.6453 155.042 78.9531C154.492 79.2609 154.018 79.6588 153.647 80.124C153.277 80.5893 153.016 81.1128 152.88 81.6647C152.745 82.2166 152.737 82.7861 152.857 83.3405L160.058 116.437C160.131 116.776 160.358 117.076 160.689 117.271C161.019 117.466 161.426 117.54 161.82 117.477L163.085 117.274V117.916C162.383 118.215 161.792 118.676 161.378 119.248C160.965 119.82 160.746 120.48 160.745 121.154V121.563H169.232V121.154C169.232 120.529 169.043 119.914 168.684 119.371C168.325 118.827 167.808 118.373 167.184 118.053V116.613L168.34 116.428C168.734 116.365 169.083 116.17 169.309 115.886C169.536 115.601 169.622 115.251 169.549 114.913L162.803 83.8195H181.507L174.769 114.916C174.696 115.255 174.782 115.604 175.009 115.889C175.235 116.173 175.584 116.368 175.978 116.431L177.134 116.616V118.056C176.51 118.376 175.993 118.83 175.634 119.374C175.275 119.917 175.086 120.532 175.086 121.157V121.566H183.573V121.157C183.572 120.483 183.353 119.823 182.939 119.251C182.526 118.679 181.935 118.218 181.233 117.92V117.277L182.498 117.48C182.892 117.543 183.299 117.469 183.629 117.274C183.959 117.079 184.186 116.779 184.26 116.44L191.534 82.9283C191.643 82.4291 191.636 81.9164 191.514 81.4195C191.392 80.9226 191.158 80.4513 190.824 80.0324C190.49 79.6135 190.063 79.2553 189.568 78.9783C189.074 78.7013 188.52 78.5109 187.94 78.418Z" fill="url(#paint3_linear)"/>
<path d="M167.375 113.061H163.434V117.662H167.375V113.061Z" fill="#FDB797"/>
<path d="M180.887 113.061H176.947V117.662H180.887V113.061Z" fill="#FDB797"/>
<path d="M185.113 75.2929H159.212V83.2829H185.113V75.2929Z" fill="#263137"/>
<path opacity="0.1" d="M159.212 76.7448C159.212 76.7448 168.876 78.6817 172.161 78.6817C175.445 78.6817 185.109 76.7448 185.109 76.7448V75.5323H159.212V76.7448Z" fill="black"/>
<path d="M185.109 76.5024C185.109 76.5024 175.445 78.4392 172.161 78.4392C168.876 78.4392 159.212 76.5024 159.212 76.5024V63.1867C159.212 60.2331 160.576 57.4006 163.005 55.3121C165.433 53.2236 168.726 52.0504 172.161 52.0504C175.595 52.0504 178.888 53.2236 181.317 55.3121C183.745 57.4006 185.109 60.2331 185.109 63.1867V76.5024Z" fill="#87A0AC"/>
<path d="M169.066 46.4791H175.259V52.8869C175.259 53.4987 174.976 54.0854 174.473 54.518C173.97 54.9506 173.288 55.1936 172.577 55.1936H171.752C171.04 55.1936 170.358 54.9506 169.855 54.518C169.352 54.0854 169.07 53.4987 169.07 52.8869V46.4791H169.066Z" fill="#FDB797"/>
<path d="M168.115 114.716L162.564 115.607C162.09 115.68 161.603 115.59 161.207 115.356C160.81 115.121 160.538 114.761 160.449 114.355L153.83 83.8498C153.685 83.1821 153.694 82.4962 153.857 81.8315C154.02 81.1667 154.333 80.5361 154.78 79.9757C155.226 79.4152 155.797 78.9359 156.459 78.5652C157.121 78.1944 157.861 77.9395 158.638 77.8149L160.068 77.5845C160.542 77.5109 161.029 77.6013 161.426 77.8358C161.822 78.0703 162.094 78.4299 162.183 78.8363L169.584 112.885C169.629 113.088 169.626 113.297 169.576 113.499C169.526 113.702 169.429 113.893 169.293 114.063C169.156 114.234 168.982 114.379 168.78 114.491C168.577 114.603 168.351 114.679 168.115 114.716Z" fill="#263137"/>
<path d="M176.193 114.716L181.744 115.607C182.217 115.68 182.705 115.59 183.101 115.356C183.497 115.121 183.769 114.761 183.858 114.355L190.59 83.3405C190.853 82.1271 190.544 80.8736 189.733 79.8556C188.921 78.8376 187.673 78.1385 186.262 77.9118L184.239 77.5875C183.766 77.5139 183.278 77.6042 182.882 77.8387C182.486 78.0732 182.213 78.4329 182.124 78.8393L174.723 112.888C174.679 113.091 174.683 113.299 174.733 113.501C174.783 113.703 174.879 113.895 175.016 114.065C175.153 114.234 175.327 114.379 175.529 114.491C175.731 114.603 175.956 114.679 176.193 114.716Z" fill="#263137"/>
<path opacity="0.1" d="M169.066 50.5166C171.1 50.9469 173.225 50.9469 175.259 50.5166V46.7216H169.066V50.5166Z" fill="black"/>
<path d="M172.161 48.416C179.623 48.416 185.673 43.213 185.673 36.7947C185.673 30.3764 179.623 25.1734 172.161 25.1734C164.698 25.1734 158.648 30.3764 158.648 36.7947C158.648 43.213 164.698 48.416 172.161 48.416Z" fill="#333333"/>
<path d="M172.161 50.5954C179.312 50.5954 185.109 45.6095 185.109 39.4591C185.109 33.3087 179.312 28.3228 172.161 28.3228C165.009 28.3228 159.212 33.3087 159.212 39.4591C159.212 45.6095 165.009 50.5954 172.161 50.5954Z" fill="#FDB797"/>
<path d="M163.61 26.3889C166.102 24.6399 169.87 24.3277 171.745 22.0816C172.524 21.1481 173.077 19.8356 174.392 19.6325L174.43 22.021L178.66 21.6482C178.008 23.2244 179.604 24.7399 180.566 26.1949C181.274 27.27 181.66 28.4791 181.691 29.714C180.228 30.4687 178.413 29.6443 176.785 29.2048C175.156 28.7653 173.518 28.7319 171.851 28.6925C171 28.6416 170.145 28.6824 169.306 28.8138C168.58 28.9813 167.872 29.2034 167.191 29.4776C166.07 29.8807 162.528 31.4054 161.489 30.4233C160.319 29.3109 162.648 27.0648 163.61 26.3889Z" fill="#333333"/>
<path opacity="0.1" d="M164.315 33.8727C165.023 34.2066 165.803 34.4129 166.606 34.4789C169.923 34.8691 173.302 34.5431 176.436 33.5302C176.95 34.6487 178.198 35.4186 179.534 35.7823C180.869 36.146 182.286 36.1642 183.685 36.1824C183.993 36.2122 184.304 36.1615 184.577 36.0369C185.201 35.6762 184.898 34.8457 184.535 34.2819L182.73 31.469C182.198 30.6385 181.648 29.7898 180.824 29.1624C179.787 28.3743 178.413 28.0045 177.06 27.7711C173.856 27.2225 170.549 27.3169 167.396 28.0469C164.023 28.8138 159.691 31.466 164.315 33.8727Z" fill="black"/>
<path d="M164.315 33.6302C165.023 33.9641 165.803 34.1704 166.606 34.2364C169.923 34.6266 173.302 34.3006 176.436 33.2877C176.95 34.4062 178.198 35.1761 179.534 35.5398C180.869 35.9036 182.286 35.9217 183.685 35.9399C183.993 35.9697 184.304 35.919 184.577 35.7944C185.201 35.4337 184.898 34.6032 184.535 34.0394L182.73 31.2265C182.198 30.396 181.648 29.5473 180.824 28.9199C179.787 28.1318 178.413 27.762 177.06 27.5286C173.856 26.98 170.549 27.0744 167.396 27.8044C164.023 28.5652 159.691 31.2265 164.315 33.6302Z" fill="#333333"/>
<path d="M184.972 41.2747C185.595 41.2747 186.1 40.4618 186.1 39.4591C186.1 38.4563 185.595 37.6434 184.972 37.6434C184.349 37.6434 183.844 38.4563 183.844 39.4591C183.844 40.4618 184.349 41.2747 184.972 41.2747Z" fill="#FDB797"/>
<path d="M159.353 41.2747C159.976 41.2747 160.481 40.4618 160.481 39.4591C160.481 38.4563 159.976 37.6434 159.353 37.6434C158.73 37.6434 158.225 38.4563 158.225 39.4591C158.225 40.4618 158.73 41.2747 159.353 41.2747Z" fill="#FDB797"/>
<path d="M169.116 52.7899C169.116 52.7899 152.734 50.5954 156.114 72.3861L158.084 78.6332L163.723 78.4392C163.723 78.4392 160.065 71.1645 162.313 66.3329C164.562 61.5013 169.116 52.7899 169.116 52.7899Z" fill="#87A0AC"/>
<path d="M175.206 52.7899C175.206 52.7899 191.587 50.5954 188.207 72.3861L186.237 78.6332L180.598 78.4392C180.598 78.4392 184.256 71.1645 182.008 66.3329C179.759 61.5013 175.206 52.7899 175.206 52.7899Z" fill="#87A0AC"/>
<path d="M161.182 82.0705C162.893 82.0705 164.28 80.8777 164.28 79.4062C164.28 77.9347 162.893 76.7418 161.182 76.7418C159.471 76.7418 158.084 77.9347 158.084 79.4062C158.084 80.8777 159.471 82.0705 161.182 82.0705Z" fill="#FDB797"/>
<path d="M183.703 82.0705C185.414 82.0705 186.801 80.8777 186.801 79.4062C186.801 77.9347 185.414 76.7418 183.703 76.7418C181.992 76.7418 180.605 77.9347 180.605 79.4062C180.605 80.8777 181.992 82.0705 183.703 82.0705Z" fill="#FDB797"/>
<path d="M164.721 115.725H165.81C166.744 115.725 167.641 116.044 168.302 116.613C168.963 117.181 169.334 117.952 169.334 118.756V119.587H161.182V118.756C161.182 118.357 161.274 117.962 161.452 117.593C161.63 117.225 161.891 116.89 162.219 116.608C162.548 116.327 162.938 116.104 163.368 115.952C163.797 115.801 164.257 115.723 164.721 115.725Z" fill="#333333"/>
<path d="M178.515 115.725H179.604C180.539 115.725 181.435 116.044 182.096 116.613C182.757 117.181 183.129 117.952 183.129 118.756V119.587H174.977V118.756C174.977 118.357 175.068 117.962 175.246 117.593C175.424 117.225 175.685 116.89 176.014 116.608C176.343 116.327 176.733 116.104 177.162 115.952C177.591 115.801 178.051 115.723 178.515 115.725Z" fill="#333333"/>
<path opacity="0.1" d="M162.028 64.3961C162.028 64.3961 160.9 69.4793 162.874 71.6708L162.028 64.3961Z" fill="black"/>
<path opacity="0.1" d="M182.297 64.3961C182.297 64.3961 183.425 69.4793 181.451 71.6708L182.297 64.3961Z" fill="black"/>
</svg>
