<svg viewBox="0 0 774 376" fill="none" xmlns="http://www.w3.org/2000/svg">
<path fill-rule="evenodd" clip-rule="evenodd" d="M26.673 162.32L616.533 5.91595C635.748 0.811397 658.782 8.04635 667.815 22.0069L764.208 170.839C777.305 191.061 765.295 213.598 737.442 220.976L178.943 369.083C151.113 376.464 117.7 365.976 104.603 345.754L8.21021 196.922C-0.822065 182.962 7.45748 167.424 26.671 162.336L26.673 162.32ZM624.651 214.399C633.8 211.962 642.947 209.54 652.07 207.115C654.497 210.86 656.923 214.606 659.349 218.351C650.202 220.773 641.078 223.198 631.931 225.62C629.505 221.874 627.079 218.129 624.653 214.383L624.651 214.399ZM631.599 216.587C632.546 218.047 633.493 219.507 634.44 220.967C640.441 219.378 646.444 217.773 652.445 216.185C651.498 214.725 650.551 213.266 649.604 211.806C643.603 213.394 637.602 214.983 631.599 216.587ZM653.48 190.29C654.427 191.75 655.374 193.21 656.321 194.669C662.322 193.081 668.323 191.492 674.326 189.888C673.379 188.428 672.432 186.968 671.485 185.509C665.484 187.097 659.483 188.686 653.48 190.29ZM549.149 51.0908C551.003 53.9567 552.837 56.7878 554.691 59.6537C561.951 57.7318 569.21 55.81 576.471 53.8721C574.618 51.0062 572.783 48.1751 570.929 45.3092C563.668 47.247 556.411 49.1529 549.149 51.0908ZM589.731 40.3326L595.273 48.8956L617.053 43.114L611.511 34.551L589.731 40.3326V40.3326ZM62.2319 180.213L67.7739 188.776L89.5541 182.994L84.0122 174.431L62.2319 180.213ZM102.814 169.455C104.67 172.305 106.502 175.152 108.356 178.018C115.615 176.096 122.875 174.174 130.136 172.236C128.282 169.37 126.448 166.539 124.594 163.673C117.335 165.595 110.075 167.517 102.814 169.455ZM143.396 158.696C145.252 161.546 147.084 164.394 148.938 167.259C156.197 165.338 163.459 163.4 170.718 161.478C168.865 158.612 167.03 155.781 165.176 152.915C157.917 154.837 150.657 156.759 143.396 158.696ZM183.98 147.922C185.834 150.788 187.668 153.619 189.522 156.485C196.781 154.563 204.041 152.642 211.3 150.72C209.447 147.854 207.612 145.023 205.758 142.157C198.499 144.079 191.239 146 183.98 147.922ZM224.539 137.161C226.395 140.011 228.227 142.858 230.081 145.724C237.34 143.802 244.6 141.881 251.861 139.943C250.007 137.077 248.173 134.246 246.319 131.38C239.06 133.302 231.8 135.224 224.539 137.161ZM265.121 126.403C266.977 129.253 268.809 132.1 270.663 134.966C277.922 133.044 285.182 131.123 292.443 129.185C290.59 126.319 288.755 123.488 286.901 120.622C279.642 122.544 272.382 124.465 265.121 126.403ZM305.703 115.645C307.559 118.495 309.391 121.342 311.245 124.208C318.504 122.286 325.764 120.364 333.025 118.427C331.172 115.561 329.337 112.729 327.483 109.864C320.224 111.785 312.964 113.707 305.703 115.645ZM346.285 104.887C348.141 107.737 349.973 110.584 351.827 113.45C359.086 111.528 366.346 109.606 373.607 107.668C371.754 104.802 369.919 101.971 368.065 99.1054C360.806 101.027 353.546 102.949 346.285 104.887ZM386.867 94.1289C388.721 96.9948 390.555 99.826 392.409 102.692C399.669 100.77 406.928 98.8481 414.189 96.9103C412.336 94.0444 410.501 91.2132 408.647 88.3473C401.386 90.2851 394.129 92.1911 386.867 94.1289ZM427.449 83.3708C429.305 86.2207 431.137 89.0678 432.991 91.9337C440.251 90.0118 447.51 88.09 454.769 86.1681C452.916 83.3022 451.081 80.471 449.228 77.6051C441.968 79.527 434.709 81.4489 427.449 83.3708ZM468.031 72.6126C469.885 75.4785 471.719 78.3097 473.573 81.1756C480.835 79.2377 488.094 77.3159 495.353 75.394C493.5 72.5281 491.665 69.6969 489.811 66.831C482.552 68.7529 475.293 70.6748 468.031 72.6126ZM508.613 61.8545C510.469 64.7044 512.302 67.5516 514.155 70.4175C521.415 68.4956 528.674 66.5737 535.935 64.6359C534.082 61.77 532.247 58.9388 530.394 56.0729C523.134 57.9948 515.875 59.9167 508.613 61.8545ZM582.307 209.179C587.02 216.475 591.757 223.758 596.471 231.037C603.73 229.115 610.989 227.194 618.251 225.256C613.539 217.96 608.825 210.68 604.088 203.398C596.828 205.32 589.569 207.241 582.307 209.179V209.179ZM543.419 219.495C548.131 226.791 552.868 234.073 557.58 241.369C564.839 239.447 572.099 237.525 579.36 235.587C574.648 228.291 569.934 221.012 565.199 213.713C557.914 215.648 550.68 217.557 543.419 219.495ZM526.308 224.045C454.195 243.16 382.104 262.278 310.014 281.396C314.726 288.691 319.44 295.971 324.175 303.27C396.289 284.155 468.379 265.037 540.471 245.903C535.759 238.607 531.022 231.325 526.308 224.045V224.045ZM271.125 291.711C275.839 298.991 280.551 306.287 285.288 313.569C292.548 311.647 299.807 309.725 307.067 307.804C302.355 300.508 297.617 293.225 292.905 285.93C285.646 287.852 278.387 289.773 271.125 291.711V291.711ZM232.213 302.024C236.925 309.32 241.662 316.602 246.374 323.898C253.634 321.976 260.893 320.054 268.155 318.116C263.443 310.821 258.705 303.538 253.991 296.258C246.732 298.18 239.473 300.102 232.213 302.024ZM193.301 312.337C198.013 319.632 202.75 326.915 207.462 334.211C214.747 332.276 221.981 330.367 229.243 328.429C224.531 321.133 219.817 313.854 215.081 306.555C207.822 308.477 200.563 310.399 193.278 312.334L193.301 312.337ZM154.412 322.652C159.124 329.948 163.838 337.228 168.575 344.51C175.835 342.588 183.094 340.666 190.356 338.729C185.644 331.433 180.907 324.15 176.193 316.871C168.933 318.793 161.674 320.714 154.412 322.652ZM623.42 164.332C626.893 169.679 630.343 175.023 633.816 180.37C654.338 174.922 674.883 169.476 695.428 164.031C691.955 158.684 688.505 153.34 685.034 147.977C664.489 153.422 643.944 158.868 623.422 164.316L623.42 164.332ZM135.535 293.709C139.008 299.056 142.458 304.4 145.931 309.747C173.422 302.455 200.911 295.179 228.379 287.884C224.906 282.537 221.456 277.193 217.982 271.846C190.515 279.141 163.003 286.414 135.535 293.709ZM622.038 130.756C625.511 136.103 628.961 141.447 632.432 146.81C647.171 142.895 661.932 138.984 676.67 135.069C673.197 129.723 669.747 124.378 666.276 119.016C651.538 122.93 636.799 126.844 622.038 130.756ZM116.779 264.732C120.25 270.095 123.7 275.439 127.173 280.786C147.405 275.416 167.611 270.059 187.84 264.705C184.367 259.358 180.894 254.011 177.446 248.651C157.215 254.021 137.008 259.378 116.779 264.732V264.732ZM625.738 95.8359C629.211 101.183 632.661 106.527 636.132 111.89C643.391 109.968 650.651 108.046 657.912 106.108C654.439 100.761 650.966 95.4144 647.518 90.0544C640.258 91.9762 632.999 93.8981 625.738 95.8359ZM97.9227 235.807C101.396 241.154 104.846 246.498 108.317 251.861C122.838 248.002 137.357 244.158 151.852 240.311C148.381 234.948 144.931 229.604 141.458 224.257C126.939 228.101 112.444 231.948 97.8996 235.805L97.9227 235.807ZM584.886 72.7317L595.282 88.7696L639.156 77.1311L628.76 61.0931L584.886 72.7317V72.7317ZM79.1666 206.83L89.5608 222.884L111.341 217.102L100.947 201.049L79.1666 206.83ZM664.873 207.762C665.82 209.221 666.765 210.697 667.714 212.141C673.715 210.552 679.718 208.948 685.72 207.359C684.773 205.899 683.825 204.44 682.878 202.98C676.877 204.568 670.874 206.173 664.873 207.762ZM697.107 199.214C698.054 200.674 699.001 202.134 699.948 203.593C705.949 202.005 711.95 200.416 717.953 198.812C717.006 197.352 716.059 195.892 715.112 194.433C709.088 196.018 703.11 197.61 697.107 199.214ZM646.605 188.079C655.752 185.657 664.899 183.235 674.046 180.813C676.472 184.559 678.898 188.304 681.324 192.049C672.175 194.487 663.028 196.909 653.905 199.334C651.478 195.588 649.052 191.843 646.626 188.097L646.605 188.079ZM542.272 48.8952C552.678 46.14 563.083 43.3847 573.49 40.6136C576.825 45.7493 580.135 50.8981 583.471 56.0179C573.066 58.7731 562.661 61.5283 552.231 64.2967C548.919 59.1638 545.584 54.0281 542.249 48.8924L542.272 48.8952ZM582.854 38.1371L614.07 29.8714L624.051 45.2757L592.834 53.5573L582.852 38.153L582.854 38.1371ZM55.3782 178.02L86.5709 169.751L96.5522 185.156L65.3595 193.424L55.3782 178.02V178.02ZM95.9372 167.259C106.342 164.504 116.748 161.749 127.153 158.993C130.488 164.129 133.799 169.262 137.134 174.398C126.729 177.153 116.324 179.908 105.918 182.663C102.584 177.528 99.272 172.395 95.9372 167.259ZM136.519 156.501C146.924 153.746 157.307 150.988 167.712 148.232C171.047 153.368 174.358 158.501 177.693 163.637C167.288 166.392 156.906 169.15 146.5 171.905C143.189 166.772 139.854 161.637 136.519 156.501ZM177.101 145.743C187.507 142.988 197.912 140.232 208.294 137.474C211.629 142.61 214.938 147.759 218.275 152.879C207.87 155.634 197.488 158.392 187.083 161.147C183.748 156.011 180.436 150.878 177.101 145.743ZM217.683 134.985C228.089 132.229 238.494 129.474 248.876 126.716C252.211 131.852 255.521 137.001 258.857 142.12C248.452 144.876 238.047 147.631 227.665 150.389C224.33 145.253 221.018 140.12 217.683 134.985ZM258.265 124.226C268.671 121.471 279.053 118.713 289.481 115.961C292.816 121.097 296.128 126.229 299.462 131.365C289.057 134.12 278.65 136.892 268.245 139.647C264.91 134.511 261.598 129.378 258.263 124.242L258.265 124.226ZM298.824 113.466C309.23 110.71 319.635 107.955 330.042 105.184C333.377 110.32 336.688 115.453 340.023 120.588C329.618 123.343 319.211 126.115 308.806 128.87C305.471 123.734 302.159 118.601 298.824 113.466V113.466ZM339.406 102.707C349.812 99.9522 360.194 97.1942 370.624 94.4258C373.959 99.5615 377.271 104.694 380.605 109.83C370.2 112.585 359.793 115.356 349.388 118.112C346.076 112.979 342.741 107.843 339.406 102.707ZM379.988 91.9493C390.394 89.1941 400.776 86.436 411.206 83.6676C414.541 88.8033 417.851 93.9522 421.187 99.0719C410.759 101.824 400.377 104.582 389.972 107.338C386.637 102.202 383.325 97.069 379.99 91.9333L379.988 91.9493ZM420.547 81.1883C430.953 78.4331 441.358 75.6779 451.765 72.9067C455.1 78.0424 458.41 83.1913 461.746 88.311C451.341 91.0662 440.936 93.8214 430.531 96.5767C427.196 91.441 423.884 86.3081 420.549 81.1724L420.547 81.1883ZM461.129 70.4302C471.535 67.675 481.94 64.9198 492.347 62.1486C495.682 67.2843 499.015 72.436 502.328 77.5529C491.923 80.3081 481.518 83.0633 471.111 85.8345C467.776 80.6988 464.464 75.5659 461.129 70.4302ZM501.711 59.6721C512.117 56.9169 522.522 54.1616 532.927 51.4064C536.262 56.5421 539.574 61.675 542.908 66.8107C532.503 69.5659 522.098 72.3212 511.691 75.0923C508.356 69.9566 505.044 64.8237 501.71 59.6881L501.711 59.6721ZM575.406 206.997C585.811 204.242 596.218 201.47 606.623 198.715C612.838 208.3 619.031 217.865 625.222 227.446C614.817 230.202 604.411 232.957 594.006 235.712C587.79 226.144 581.599 216.562 575.406 206.997ZM536.494 217.31C546.899 214.554 557.304 211.799 567.709 209.044C573.924 218.628 580.117 228.194 586.31 237.759C575.905 240.514 565.499 243.27 555.092 246.041C548.876 236.473 542.685 226.891 536.494 217.31ZM528.822 219.344C535.037 228.928 541.23 238.493 547.421 248.075C472.185 268.026 396.926 287.974 321.69 307.926C315.473 298.357 309.282 288.776 303.091 279.195C378.327 259.243 453.563 239.292 528.822 219.344ZM264.202 289.51C274.607 286.755 285.013 284 295.418 281.244C301.632 290.829 307.825 300.394 314.018 309.96C303.613 312.715 293.208 315.47 282.801 318.241C276.61 308.66 270.393 299.092 264.202 289.51V289.51ZM225.313 299.826C235.719 297.07 246.126 294.299 256.508 291.541C262.722 301.125 268.915 310.691 275.107 320.272C264.701 323.028 254.319 325.786 243.914 328.541C237.698 318.973 231.506 309.391 225.313 299.826V299.826ZM186.424 310.141C196.83 307.386 207.235 304.631 217.642 301.86C223.856 311.444 230.05 321.009 236.241 330.591C225.835 333.346 215.428 336.117 205.023 338.872C198.809 329.288 192.616 319.723 186.424 310.141ZM147.512 320.454C157.918 317.699 168.325 314.927 178.753 312.175C184.967 321.759 191.161 331.325 197.352 340.906C186.947 343.662 176.539 346.433 166.134 349.188C159.918 339.62 153.727 330.038 147.534 320.473L147.512 320.454ZM616.541 162.152C640.232 155.873 663.9 149.592 687.591 143.313C692.52 150.943 697.472 158.576 702.424 166.208C678.733 172.487 655.066 178.769 631.375 185.047C626.423 177.415 621.472 169.766 616.541 162.152V162.152ZM578.355 172.278C588.76 169.522 599.165 166.767 609.57 164.012C614.523 171.645 619.452 179.274 624.404 186.907C613.999 189.662 603.593 192.418 593.188 195.173C588.259 187.543 583.309 179.894 578.355 172.278V172.278ZM539.466 182.593C549.871 179.838 560.253 177.08 570.682 174.327C575.634 181.96 580.586 189.593 585.515 197.223C575.11 199.978 564.703 202.749 554.32 205.507C549.368 197.874 544.418 190.226 539.489 182.596L539.466 182.593ZM500.577 192.909C510.982 190.153 521.364 187.395 531.772 184.624C536.724 192.257 541.674 199.906 546.603 207.535C536.175 210.288 525.793 213.046 515.387 215.801C510.435 208.168 505.485 200.52 500.554 192.906L500.577 192.909ZM461.665 203.221C472.07 200.466 482.452 197.708 492.858 194.953C497.787 202.583 502.737 210.232 507.689 217.864C497.284 220.619 486.902 223.377 476.497 226.133C471.544 218.5 466.594 210.851 461.665 203.221V203.221ZM422.776 213.537C433.181 210.782 443.587 208.027 453.969 205.269C458.898 212.898 463.85 220.531 468.802 228.164C458.397 230.919 448.015 233.677 437.61 236.432C432.657 228.8 427.707 221.151 422.778 213.521L422.776 213.537ZM383.864 223.85C394.269 221.095 404.675 218.339 415.082 215.568C420.011 223.198 424.961 230.847 429.913 238.479C419.508 241.235 409.103 243.99 398.696 246.761C393.767 239.131 388.816 231.482 383.864 223.85ZM344.975 234.165C355.38 231.41 365.788 228.639 376.193 225.884C381.145 233.516 386.097 241.149 391.024 248.795C380.619 251.55 370.237 254.308 359.809 257.061C354.857 249.428 349.906 241.779 344.975 234.165ZM306.063 244.478C316.468 241.723 326.876 238.952 337.281 236.196C342.233 243.829 347.183 251.478 352.113 259.108C341.707 261.863 331.279 264.615 320.872 267.386C315.92 259.754 310.969 252.105 306.038 244.491L306.063 244.478ZM267.174 254.794C277.58 252.038 287.985 249.283 298.415 246.515C303.344 254.145 308.296 261.777 313.249 269.41C302.843 272.165 292.413 274.934 282.008 277.689C277.056 270.056 272.105 262.408 267.174 254.794V254.794ZM228.285 265.109C238.691 262.354 249.073 259.596 259.503 256.828C264.432 264.457 269.383 272.106 274.335 279.739C263.93 282.494 253.524 285.249 243.119 288.004C238.167 280.372 233.217 272.723 228.285 265.109ZM128.704 291.519C159.316 283.407 189.953 275.282 220.589 267.156C225.541 274.789 230.471 282.419 235.423 290.051C204.786 298.177 174.173 306.305 143.536 314.43C138.584 306.798 133.633 299.149 128.704 291.519V291.519ZM615.207 128.566C633.091 123.818 650.974 119.086 668.858 114.339C673.81 121.971 678.739 129.601 683.691 137.234C665.807 141.982 647.925 146.713 630.041 151.461C625.089 143.828 620.16 136.198 615.207 128.566ZM576.755 138.756C587.161 136.001 597.566 133.246 607.973 130.474C612.902 138.104 617.854 145.737 622.807 153.37C612.401 156.125 601.971 158.893 591.589 161.651C586.637 154.019 581.709 146.373 576.755 138.756V138.756ZM537.866 149.072C548.272 146.316 558.654 143.558 569.082 140.806C574.034 148.439 578.964 156.069 583.916 163.701C573.51 166.456 563.105 169.212 552.7 171.967C547.748 164.334 542.819 156.704 537.866 149.072ZM498.978 159.387C509.36 156.629 519.765 153.874 530.172 151.103C535.124 158.735 540.054 166.365 545.006 173.998C534.6 176.753 524.193 179.524 513.79 182.264C508.838 174.631 503.909 167.001 498.956 159.368L498.978 159.387ZM460.066 169.7C470.471 166.945 480.876 164.19 491.281 161.434C496.21 169.064 501.163 176.697 506.115 184.33C495.71 187.085 485.327 189.843 474.922 192.598C469.97 184.965 465.018 177.333 460.089 169.703L460.066 169.7ZM421.177 180.016C431.582 177.26 441.964 174.502 452.369 171.747C457.298 179.377 462.251 187.01 467.203 194.642C456.798 197.398 446.415 200.156 436.01 202.911C431.058 195.278 426.106 187.645 421.177 180.016V180.016ZM382.265 190.328C392.67 187.573 403.077 184.802 413.482 182.047C418.435 189.679 423.364 197.309 428.316 204.942C417.911 207.697 407.505 210.452 397.1 213.208C392.148 205.575 387.219 197.945 382.267 190.312L382.265 190.328ZM343.376 200.644C353.781 197.889 364.188 195.117 374.593 192.362C379.546 199.995 384.475 207.625 389.427 215.257C379.022 218.013 368.617 220.768 358.209 223.539C353.257 215.906 348.33 208.261 343.376 200.644ZM304.487 210.959C314.892 208.204 325.297 205.449 335.703 202.694C340.655 210.326 345.584 217.956 350.536 225.589C340.131 228.344 329.726 231.099 319.319 233.871C314.389 226.241 309.437 218.608 304.485 210.975L304.487 210.959ZM265.598 221.275C276.003 218.52 286.41 215.748 296.816 212.993C301.745 220.623 306.697 228.256 311.649 235.889C301.244 238.644 290.839 241.399 280.457 244.157C275.504 236.524 270.552 228.892 265.623 221.262L265.598 221.275ZM226.686 231.588C237.091 228.832 247.497 226.077 257.904 223.306C262.833 230.936 267.785 238.569 272.737 246.201C262.332 248.956 251.902 251.725 241.52 254.483C236.567 246.85 231.638 239.22 226.686 231.588ZM187.797 241.903C198.202 239.148 208.608 236.393 219.015 233.622C223.944 241.251 228.896 248.884 233.848 256.517C223.443 259.272 213.013 262.04 202.631 264.798C197.679 257.166 192.749 249.536 187.797 241.903ZM109.996 262.531C133.349 256.341 156.726 250.138 180.078 243.948C185.007 251.577 189.959 259.21 194.911 266.843C171.536 273.03 148.182 279.236 124.83 285.427C119.88 277.778 114.95 270.148 109.996 262.531V262.531ZM618.932 93.6328C629.337 90.8776 639.742 88.1224 650.148 85.3671C655.098 93.0158 660.05 100.648 664.981 108.262C654.576 111.018 644.194 113.776 633.789 116.531C628.836 108.898 623.907 101.268 618.955 93.6356L618.932 93.6328ZM579.849 104.006C590.254 101.251 600.636 98.4925 611.041 95.7373C615.992 103.386 620.944 111.019 625.875 118.633C615.47 121.388 605.062 124.159 594.657 126.914C589.705 119.281 584.776 111.652 579.826 104.003L579.849 104.006ZM540.937 114.318C551.342 111.563 561.747 108.808 572.152 106.053C577.103 113.701 582.055 121.334 586.986 128.948C576.581 131.703 566.176 134.459 555.77 137.214C550.841 129.584 545.889 121.951 540.937 114.318ZM502.048 124.634C512.453 121.879 522.835 119.121 533.264 116.368C538.214 124.017 543.166 131.65 548.097 139.264C537.692 142.019 527.287 144.774 516.879 147.545C511.95 139.915 506.998 132.283 502.048 124.634V124.634ZM463.159 134.95C473.564 132.194 483.946 129.436 494.375 126.684C499.325 134.333 504.277 141.965 509.206 149.595C498.801 152.35 488.396 155.106 477.991 157.861C473.061 150.231 468.109 142.598 463.159 134.95ZM424.27 145.265C434.675 142.51 445.057 139.752 455.463 136.997C460.413 144.645 465.342 152.275 470.294 159.908C459.889 162.663 449.507 165.421 439.102 168.176C434.149 160.544 429.22 152.914 424.27 145.265V145.265ZM385.381 155.581C395.786 152.825 406.169 150.067 416.574 147.312C421.526 154.945 426.453 162.591 431.407 170.207C421.002 172.963 410.597 175.718 400.215 178.476C395.262 170.843 390.333 163.213 385.383 155.565L385.381 155.581ZM346.469 165.893C356.874 163.138 367.28 160.383 377.687 157.612C382.637 165.26 387.566 172.89 392.519 180.523C382.113 183.278 371.708 186.033 361.301 188.805C356.372 181.175 351.419 173.542 346.469 165.893ZM307.557 176.206C317.962 173.451 328.393 170.683 338.775 167.925C343.725 175.573 348.677 183.206 353.608 190.82C343.203 193.575 332.821 196.333 322.391 199.101C317.462 191.472 312.509 183.839 307.557 176.206ZM268.668 186.522C279.074 183.767 289.481 180.995 299.886 178.24C304.836 185.889 309.789 193.521 314.718 201.151C304.312 203.907 293.907 206.662 283.5 209.433C278.548 201.8 273.619 194.17 268.666 186.538L268.668 186.522ZM229.779 196.837C240.185 194.082 250.59 191.327 260.997 188.556C265.949 196.188 270.9 203.837 275.831 211.451C265.425 214.206 255.018 216.977 244.613 219.733C239.684 212.103 234.732 204.47 229.779 196.837ZM190.891 207.153C201.296 204.398 211.678 201.64 222.108 198.871C227.059 206.52 231.988 214.15 236.94 221.782C226.535 224.538 216.129 227.293 205.724 230.048C200.772 222.415 195.843 214.786 190.891 207.153ZM152.002 217.468C162.384 214.71 172.789 211.955 183.194 209.2C188.145 216.849 193.097 224.481 198.028 232.095C187.623 234.85 177.215 237.622 166.835 240.364C161.906 232.734 156.954 225.101 152.002 217.468ZM91.2133 233.583C108.878 228.906 126.522 224.21 144.186 219.533C149.136 227.182 154.066 234.812 159.02 242.429C141.355 247.106 123.712 251.802 106.047 256.479C101.118 248.849 96.1655 241.216 91.2133 233.583V233.583ZM578.199 70.5106L631.488 56.3692L646.319 79.2804L593.033 93.4058L578.199 70.5106V70.5106ZM539.287 80.8234C549.693 78.0681 560.075 75.3101 570.48 72.5549C575.432 80.1876 580.383 87.8362 585.314 95.4501C574.908 98.2053 564.526 100.963 554.121 103.719C549.192 96.0887 544.241 88.4401 539.289 80.8074L539.287 80.8234ZM500.375 91.1361C510.781 88.3809 521.186 85.6257 531.591 82.8704C536.543 90.5031 541.494 98.1517 546.425 105.766C536.019 108.521 525.637 111.279 515.23 114.05C510.278 106.417 505.328 98.7688 500.398 91.1389L500.375 91.1361ZM461.486 101.452C471.892 98.6964 482.299 95.9252 492.702 93.186C497.631 100.816 502.582 108.465 507.536 116.081C497.131 118.836 486.748 121.594 476.32 124.347C471.391 116.717 466.418 109.066 461.486 101.452ZM422.598 111.767C433.003 109.012 443.408 106.257 453.815 103.486C458.744 111.115 463.695 118.764 468.647 126.397C458.242 129.152 447.813 131.904 437.431 134.662C432.502 127.033 427.529 119.381 422.598 111.767V111.767ZM383.686 122.08C394.091 119.325 404.498 116.554 414.926 113.801C419.856 121.431 424.806 129.08 429.758 136.712C419.353 139.468 408.946 142.239 398.517 144.991C393.588 137.361 388.638 129.713 383.684 122.096L383.686 122.08ZM344.797 132.395C355.202 129.64 365.607 126.885 376.014 124.114C380.944 131.744 385.917 139.395 390.846 147.025C380.441 149.78 370.036 152.535 359.63 155.291C354.701 147.661 349.751 140.012 344.797 132.395ZM305.908 142.711C316.313 139.956 326.695 137.198 337.126 134.429C342.078 142.062 347.028 149.711 351.957 157.341C341.552 160.096 331.147 162.851 320.739 165.622C315.787 157.99 310.837 150.341 305.908 142.711ZM266.996 153.024C277.401 150.269 287.806 147.513 298.212 144.758C303.141 152.388 308.091 160.037 313.045 167.653C302.64 170.409 292.235 173.164 281.829 175.919C276.9 168.289 271.927 160.638 266.996 153.024ZM228.107 163.339C238.512 160.584 248.894 157.826 259.3 155.071C264.229 162.701 269.202 170.352 274.133 177.966C263.728 180.721 253.323 183.477 242.941 186.235C238.011 178.605 233.038 170.953 228.107 163.339ZM189.195 173.652C199.6 170.897 210.006 168.142 220.411 165.386C225.34 173.016 230.313 180.668 235.242 188.298C224.837 191.053 214.432 193.808 204.027 196.563C199.098 188.933 194.124 181.282 189.195 173.652ZM150.283 183.965C160.688 181.21 171.094 178.454 181.499 175.699C186.451 183.332 191.401 190.98 196.332 198.594C185.927 201.35 175.545 204.108 165.138 206.879C160.186 199.246 155.235 191.598 150.306 183.968L150.283 183.965ZM111.394 194.28C121.799 191.525 132.182 188.767 142.587 186.012C147.539 193.645 152.489 201.293 157.418 208.923C147.013 211.678 136.608 214.434 126.226 217.192C121.274 209.559 116.323 201.91 111.394 194.28V194.28ZM72.5053 204.596L103.723 196.314L118.555 219.226L87.3388 227.491L72.5053 204.596ZM658.214 205.511C667.361 203.089 676.508 200.668 685.656 198.23C688.083 201.975 690.507 205.737 692.935 209.466C683.788 211.888 674.641 214.31 665.494 216.732C663.068 212.986 660.642 209.241 658.216 205.495L658.214 205.511ZM690.447 196.964C699.594 194.542 708.743 192.104 717.867 189.68C720.293 193.425 722.719 197.171 725.146 200.916C715.999 203.338 706.852 205.76 697.705 208.182C695.279 204.436 692.852 200.691 690.426 196.945L690.447 196.964ZM33.662 172.468L623.523 16.0481C634.947 13.0114 648.685 17.3359 654.094 25.6397L750.487 174.472C759.937 189.05 751.264 205.317 731.179 210.64L172.679 358.748C152.617 364.073 128.5 356.496 119.051 341.918L22.6579 193.086C17.2735 184.769 22.2389 175.505 33.662 172.468V172.468Z" fill="#BBC9D0" fill-opacity="0.5"/>
</svg>
