<svg viewBox="0 0 53 64" fill="none" xmlns="http://www.w3.org/2000/svg">
<path d="M2.14981 10.3873L2.14981 18.7746L2.14981 27.1619" stroke="#FFC58F" stroke-width="3.50293" stroke-linecap="round"/>
<path d="M9.67429 2L9.67429 31.7749L9.67429 61.5499" stroke="#FFC58F" stroke-width="3.50293" stroke-linecap="round"/>
<path d="M2.14981 37.2267L2.14981 45.614L2.14981 54.0013" stroke="#FFC58F" stroke-width="3.50293" stroke-linecap="round"/>
<path d="M35.4724 10.8067C35.4724 10.8067 31.71 14.581 26.8729 19.194M35.4722 52.7432C35.4722 52.7432 31.0222 48.4233 25.2607 43.0978C23.2146 41.2065 21.3523 39.3554 19.3486 37.2267C17.8253 35.6085 16.3041 33.514 16.6613 30.9362C17.029 28.2819 20.4233 25.4845 20.4233 25.4845M26.8729 19.194C25.2605 20.9096 22.5732 23.1373 20.4233 25.4845M26.8729 19.194L23.6481 22.2905L20.4233 25.4845" stroke="#FFC58F" stroke-width="3.50293" stroke-miterlimit="1" stroke-linecap="round" stroke-linejoin="round"/>
<path d="M35.4725 20.4521C30.0977 25.4844 26.3603 28.1651 25.7981 31.3556C25.798 34.8491 29.5602 37.646 35.4723 43.0978" stroke="#FFC58F" stroke-width="3.50293" stroke-miterlimit="1" stroke-linecap="round" stroke-linejoin="round"/>
<path d="M35.4725 20.4521C30.0977 25.4844 26.3603 28.1651 25.7981 31.3556C25.798 34.8491 29.5602 37.646 35.4723 43.0978" stroke="#FFC58F" stroke-width="3.50293" stroke-miterlimit="1" stroke-linecap="round" stroke-linejoin="round"/>
<ellipse cx="2.14984" cy="32.1943" rx="2.14984" ry="1.67746" fill="#FFC58F"/>
</svg>
