<svg viewBox="0 0 9 8" fill="currentColor" xmlns="http://www.w3.org/2000/svg">
<path d="M3.51106 7.05266C2.12013 6.16235 1.42485 5.08939 1.42485 3.83519C1.42485 3.44479 1.49303 3.24977 1.6287 3.24977L1.7686 3.28757C1.87883 3.32997 1.96751 3.35117 2.0357 3.35117C2.43386 3.35117 2.76702 3.20632 3.03376 2.91661C3.30085 2.62691 3.4344 2.27008 3.4344 1.844C3.4344 1.43524 3.28955 1.08795 3.00161 0.802839C2.71332 0.517728 2.36568 0.375349 1.95868 0.375349C1.39058 0.375349 0.921751 0.608525 0.552556 1.07594C0.184068 1.54229 0 2.12876 0 2.8343C0 3.63275 0.156157 4.36301 0.469885 5.0258C0.784319 5.68823 1.26268 6.28706 1.9071 6.82231C2.55151 7.3572 2.96275 7.625 3.14081 7.625C3.25952 7.625 3.35703 7.56777 3.43334 7.4533C3.50965 7.33918 3.54781 7.23955 3.54781 7.15476L3.51 7.05301L3.51106 7.05266ZM8.08979 7.05266C6.69886 6.16235 6.00393 5.08974 6.00393 3.83483C6.00393 3.44444 6.07211 3.24942 6.20778 3.24942L6.34768 3.28722C6.45791 3.32962 6.54659 3.35082 6.61478 3.35082C7.00446 3.35082 7.3355 3.20596 7.60648 2.91626C7.87852 2.62656 8.01348 2.26973 8.01348 1.84365C8.01348 1.43489 7.86863 1.0876 7.58069 0.802486C7.2924 0.517375 6.94476 0.374996 6.53776 0.374996C5.96966 0.374996 5.50083 0.608172 5.13164 1.07558C4.76315 1.54194 4.57908 2.12841 4.57908 2.83394C4.57908 3.64087 4.73736 4.37785 5.05603 5.04417C5.374 5.71084 5.85272 6.30791 6.49289 6.83432C7.13412 7.36109 7.54289 7.62465 7.7206 7.62465C7.83966 7.62465 7.93717 7.56741 8.01383 7.45294C8.08979 7.33848 8.12795 7.23885 8.12795 7.15406L8.08979 7.05266Z" fill="currentColor"/>
</svg>