<svg viewBox="0 0 12 10" fill="currentColor" xmlns="http://www.w3.org/2000/svg">
<path fill-rule="evenodd" clip-rule="evenodd" d="M7.27799 8.945C7.17797 8.84485 7.12179 8.7091 7.12179 8.56756C7.12179 8.42602 7.17797 8.29027 7.27799 8.19013L9.92715 5.54097H4.09473C3.41606 5.54097 2.40909 5.34157 1.55738 4.72842C0.677884 4.09462 -7.2759e-05 3.04421 -7.2759e-05 1.44617C-7.2759e-05 1.30452 0.0561984 1.16866 0.156362 1.0685C0.256526 0.968336 0.392378 0.912065 0.534032 0.912065C0.675685 0.912065 0.811537 0.968336 0.911701 1.0685C1.01187 1.16866 1.06814 1.30452 1.06814 1.44617C1.06814 2.69669 1.57732 3.42592 2.18121 3.86103C2.81288 4.31609 3.58697 4.47276 4.09473 4.47276H9.92715L7.27799 1.8236C7.22552 1.77471 7.18343 1.71574 7.15423 1.65023C7.12504 1.58471 7.10935 1.51398 7.10808 1.44227C7.10681 1.37055 7.12001 1.29932 7.14687 1.23281C7.17373 1.16631 7.21372 1.1059 7.26443 1.05518C7.31515 1.00446 7.37556 0.964477 7.44207 0.937614C7.50857 0.910752 7.57981 0.89756 7.65152 0.898826C7.72324 0.900091 7.79396 0.915787 7.85948 0.944979C7.925 0.974171 7.98396 1.01626 8.03286 1.06874L11.5936 4.62943C11.6936 4.72958 11.7498 4.86533 11.7498 5.00687C11.7498 5.1484 11.6936 5.28415 11.5936 5.3843L8.03286 8.945C7.93271 9.04502 7.79696 9.1012 7.65542 9.1012C7.51389 9.1012 7.37814 9.04502 7.27799 8.945Z" fill="currentColor"/>
</svg>