<svg width="33" height="33" viewBox="0 0 33 33" fill="none" xmlns="http://www.w3.org/2000/svg">
<g clip-path="url(#clip0)">
<path d="M33.5841 31.6228L24.1159 22.1479C25.9825 19.9093 27.1051 17.0486 27.1051 13.9241C27.1051 6.79588 21.2551 1 14.0593 1C6.86351 1 1 6.80264 1 13.9308C1 21.059 6.84998 26.8549 14.0458 26.8549C17.1027 26.8549 19.9161 25.8066 22.1479 24.055L31.6499 33.557C32.2044 34.1116 33.0295 34.1116 33.5841 33.557C34.1386 33.0025 34.1386 32.1774 33.5841 31.6228ZM3.77282 13.9308C3.77282 8.33108 8.38518 3.77959 14.0458 3.77959C19.7064 3.77959 24.3188 8.33108 24.3188 13.9308C24.3188 19.5306 19.7064 24.0821 14.0458 24.0821C8.38518 24.0821 3.77282 19.5238 3.77282 13.9308Z" fill="white"/>
</g>
<defs>
<clipPath id="clip0">
<rect width="33" height="33" fill="white"/>
</clipPath>
</defs>
</svg>
