<svg viewBox="0 0 302 226" fill="none" xmlns="http://www.w3.org/2000/svg">
<path d="M301.4 0.148804H0.128357V166.983H301.4V0.148804Z" fill="#E6E6E6"/>
<path d="M292.785 21.0729H8.74341V157.112H292.785V21.0729Z" fill="white"/>
<path d="M301.272 0H0V11.0669H301.272V0Z" fill="#263137"/>
<path d="M9.51126 7.70915C10.8214 7.70915 11.8835 6.79081 11.8835 5.65798C11.8835 4.52515 10.8214 3.60681 9.51126 3.60681C8.20112 3.60681 7.13904 4.52515 7.13904 5.65798C7.13904 6.79081 8.20112 7.70915 9.51126 7.70915Z" fill="white"/>
<path d="M18.5157 7.70915C19.8258 7.70915 20.8879 6.79081 20.8879 5.65798C20.8879 4.52515 19.8258 3.60681 18.5157 3.60681C17.2055 3.60681 16.1434 4.52515 16.1434 5.65798C16.1434 6.79081 17.2055 7.70915 18.5157 7.70915Z" fill="white"/>
<path d="M27.52 7.70915C28.8301 7.70915 29.8922 6.79081 29.8922 5.65798C29.8922 4.52515 28.8301 3.60681 27.52 3.60681C26.2098 3.60681 25.1478 4.52515 25.1478 5.65798C25.1478 6.79081 26.2098 7.70915 27.52 7.70915Z" fill="white"/>
<path d="M107.538 35.1881H34.5526V142.997H107.538V35.1881Z" fill="#E6E6E6"/>
<path d="M180.958 35.1881H120.137V64.8638H180.958V35.1881Z" fill="#718F9D"/>
<path d="M180.958 73.1279H120.137V105.057H180.958V73.1279Z" fill="#E6E6E6"/>
<path d="M180.958 113.322H120.137V142.997H180.958V113.322Z" fill="#E6E6E6"/>
<path d="M266.976 35.1881H193.991V82.1707H266.976V35.1881Z" fill="#E6E6E6"/>
<path d="M266.976 96.0146H193.991V142.997H266.976V96.0146Z" fill="#E6E6E6"/>
<path d="M238.86 85.546V75.4313C238.86 71.8366 240.511 68.3892 243.451 65.8474C246.391 63.3056 250.378 61.8776 254.535 61.8776C258.692 61.8776 262.679 63.3056 265.619 65.8474C268.559 68.3892 270.21 71.8366 270.21 75.4313V85.546C270.209 86.0287 269.987 86.4915 269.593 86.8328C269.198 87.1741 268.663 87.3661 268.104 87.3666H240.965C240.407 87.3661 239.872 87.1741 239.477 86.8328C239.083 86.4915 238.86 86.0287 238.86 85.546Z" fill="#3F525B"/>
<path d="M277.713 217.177L272.184 218.5L263.652 200.691L271.812 198.738L277.713 217.177Z" fill="#FFB8B8"/>
<path d="M267.798 218.079L278.461 215.528L280.319 221.332L262.943 225.49C262.699 224.728 262.631 223.932 262.743 223.147C262.855 222.362 263.144 221.603 263.595 220.915C264.046 220.227 264.649 219.622 265.371 219.136C266.092 218.649 266.917 218.29 267.798 218.079V218.079Z" fill="#2F2E41"/>
<path d="M220.073 220.854H214.336L211.607 201.722H220.074L220.073 220.854Z" fill="#FFB8B8"/>
<path d="M210.239 219.437H221.302V225.46H203.273C203.273 224.669 203.453 223.886 203.803 223.155C204.153 222.424 204.666 221.76 205.313 221.201C205.96 220.641 206.728 220.198 207.573 219.895C208.418 219.592 209.324 219.437 210.239 219.437V219.437Z" fill="#2F2E41"/>
<path d="M213.155 113.931C213.565 114.409 214.091 114.803 214.695 115.087C215.3 115.37 215.97 115.535 216.656 115.57C217.343 115.606 218.03 115.511 218.67 115.291C219.309 115.072 219.885 114.735 220.358 114.302L235.607 120.233L234.22 112.816L219.951 108.321C219.059 107.683 217.926 107.351 216.769 107.387C215.611 107.423 214.51 107.825 213.672 108.516C212.834 109.208 212.319 110.141 212.224 111.139C212.129 112.137 212.46 113.13 213.156 113.931H213.155Z" fill="#FFB8B8"/>
<path d="M244.84 158.532C240.049 158.532 235.089 157.915 230.92 156.079C228.707 155.124 226.746 153.785 225.159 152.144C223.572 150.504 222.394 148.598 221.698 146.545C219.526 140.598 222.265 134.755 224.913 129.105C226.554 125.604 228.105 122.297 228.507 119.038L228.647 117.881C229.274 112.683 229.815 108.193 232.81 106.51C234.363 105.637 236.451 105.587 239.193 106.357L264.949 113.592L264.002 155.867L263.846 155.912C263.711 155.951 254.631 158.532 244.84 158.532Z" fill="#2F2E41"/>
<path d="M238.743 93.196C238.743 93.196 251.377 89.9593 261.203 91.173C261.203 91.173 255.588 117.876 257.459 126.777C259.331 135.678 224.939 130.216 231.958 121.719L234.298 111.605C234.298 111.605 229.619 107.559 233.83 102.704L238.743 93.196Z" fill="#FFC58F"/>
<path d="M232.529 157.73L216.958 155.206L222.394 119.033C222.76 118.023 231.181 95.1047 235.005 93.8647C237.782 93.0191 240.622 92.3369 243.506 91.8228L244.06 91.727L240.938 95.7764L228.508 121.53L232.529 157.73Z" fill="#263137"/>
<path d="M224.416 216.421L204.298 213.522L215.588 173.661L232.387 119.148L232.553 120.116C232.566 120.188 234.136 127.309 257.423 124.149L257.628 124.122L257.685 124.294L285.831 210.284L262.907 213.588L242 150.849L224.416 216.421Z" fill="#263137"/>
<path d="M252.3 164.5L252.312 164.194C252.327 163.854 253.711 130.058 253.248 116.466C252.784 102.827 257.891 91.0168 257.943 90.8991L257.984 90.8042L258.097 90.7762C264.704 89.1442 270.435 94.0151 270.492 94.0645L270.573 94.134L268.691 107.557L276.747 156.367L252.3 164.5Z" fill="#263137"/>
<path d="M251.314 87.1312C257.661 87.1312 262.806 82.6822 262.806 77.1941C262.806 71.706 257.661 67.257 251.314 67.257C244.967 67.257 239.821 71.706 239.821 77.1941C239.821 82.6822 244.967 87.1312 251.314 87.1312Z" fill="#FFB8B8"/>
<path d="M235.151 76.2405C235.155 73.3979 236.463 70.6727 238.787 68.6627C241.112 66.6528 244.264 65.5221 247.551 65.5189H249.891C253.178 65.5221 256.33 66.6528 258.655 68.6627C260.979 70.6727 262.287 73.3979 262.29 76.2405V76.4428H257.346L255.66 72.3598L255.323 76.4428H252.767L251.917 74.3827L251.746 76.4428H235.151V76.2405Z" fill="#3F525B"/>
<path d="M250.183 88.504C249.951 88.2322 249.812 87.9093 249.783 87.5724C249.754 87.2354 249.835 86.8982 250.018 86.5996C252.497 82.5221 255.969 74.9879 251.361 70.3414L251.03 70.0076H264.406V87.3724L252.255 89.2262C252.132 89.2451 252.007 89.2546 251.882 89.2547C251.55 89.2547 251.223 89.1866 250.928 89.0561C250.633 88.9256 250.377 88.7364 250.183 88.504Z" fill="#3F525B"/>
<path d="M196.327 16.8091C186.967 9.97982 175.513 5.65013 163.359 4.34692C151.205 3.0437 138.875 4.82314 127.869 9.46872C116.863 14.1143 107.656 21.4257 101.368 30.5132C95.0805 39.6008 91.9831 50.0726 92.453 60.6545C92.9228 71.2365 96.9396 81.4722 104.015 90.1161C111.09 98.7601 120.918 105.44 132.303 109.342C143.688 113.244 156.14 114.201 168.143 112.096C180.146 109.991 191.182 104.915 199.909 97.485L277.404 154.025C278.583 154.887 280.11 155.309 281.649 155.197C283.187 155.086 284.612 154.451 285.609 153.431C286.606 152.411 287.093 151.091 286.964 149.761C286.835 148.43 286.101 147.199 284.922 146.337L284.913 146.331L207.418 89.7904C216.42 78.6185 220.273 64.9424 218.222 51.4422C216.17 37.942 208.362 25.5908 196.327 16.8091ZM191.331 84.346C185.294 90.5325 177.271 95.0321 168.276 97.2758C159.281 99.5196 149.719 99.4066 140.799 96.9513C131.878 94.496 124 89.8086 118.16 83.4818C112.321 77.1551 108.782 69.4731 107.992 61.4074C107.202 53.3417 109.195 45.2544 113.721 38.1684C118.246 31.0824 125.1 25.3158 133.415 21.5978C141.731 17.8799 151.135 16.3776 160.438 17.281C169.741 18.1843 178.526 21.4527 185.681 26.6729C190.431 30.1389 194.346 34.3801 197.201 39.1543C200.056 43.9284 201.795 49.142 202.32 54.4975C202.845 59.8529 202.144 65.2453 200.259 70.3667C198.374 75.4881 195.34 80.2383 191.331 84.346Z" fill="#9CB0BA"/>
<path opacity="0.3" d="M124.631 89.232C115.551 82.6064 109.684 73.2704 108.196 63.0778C106.708 52.8852 109.708 42.5815 116.599 34.2126C115.694 35.0007 114.819 35.826 113.975 36.6886C109.966 40.7963 106.932 45.5465 105.047 50.6679C103.162 55.7893 102.461 61.1817 102.986 66.5371C103.511 71.8925 105.25 77.1062 108.105 81.8803C110.96 86.6545 114.875 90.8957 119.625 94.3617C124.376 97.8278 129.87 100.451 135.793 102.081C141.716 103.711 147.952 104.317 154.146 103.863C160.339 103.41 166.369 101.905 171.89 99.4368C177.412 96.9682 182.317 93.5834 186.325 89.4757C187.168 88.612 187.962 87.7274 188.707 86.822C180.325 94.1037 169.083 98.3937 157.213 98.8402C145.343 99.2867 133.712 95.8569 124.631 89.232V89.232Z" fill="#879BA5"/>
<path d="M255.004 131.303C255.672 131.444 256.368 131.457 257.042 131.341C257.717 131.224 258.354 130.981 258.908 130.629C259.462 130.277 259.92 129.824 260.25 129.302C260.58 128.78 260.774 128.202 260.817 127.608L276.929 123.741L270.379 118.804L256.084 123.233C254.925 123.236 253.809 123.606 252.945 124.273C252.082 124.941 251.531 125.859 251.398 126.853C251.265 127.848 251.558 128.851 252.223 129.671C252.888 130.491 253.877 131.072 255.004 131.303V131.303Z" fill="#FFB8B8"/>
<path d="M261.7 129.256L260.72 121.203L274.178 114.782L265.404 105.598L266.835 95.2812L270.401 93.96L270.512 94.0832C272.193 95.9525 286.938 112.403 286.938 114.437C286.938 116.526 284.117 122.659 280.258 124.328C276.535 125.937 262.556 129.065 261.963 129.198L261.7 129.256Z" fill="#263137"/>
<path d="M300.614 226H153.386C153.284 226 153.186 225.947 153.113 225.854C153.041 225.76 153 225.633 153 225.5C153 225.367 153.041 225.24 153.113 225.146C153.186 225.053 153.284 225 153.386 225H300.614C300.716 225 300.814 225.053 300.887 225.146C300.959 225.24 301 225.367 301 225.5C301 225.633 300.959 225.76 300.887 225.854C300.814 225.947 300.716 226 300.614 226Z" fill="#CCCCCC"/>
</svg>
