<svg viewBox="0 0 1920 90" xmlns="http://www.w3.org/2000/svg">
<path opacity="0.25" className="third" d="M1919.99 98L1919.99 60.2425C1843.53 42.1298 1754.25 33.992 1667.2 37.3879C1554.62 41.7611 1449.07 64.5445 1336.31 67.9551C1218.17 71.5041 1100.25 54.1719 987.201 39.1728C876.372 24.4838 765.926 18.8651 652.165 28.483C594.325 33.3735 540.404 43.0277 485.043 52.4045C336.816 77.5099 139.197 109.545 0.00650094 55.0824L0 97.8808L1919.99 98Z" fill="white"/>
<path opacity="0.5" className="second" d="M1919.99 98L1919.99 85.1042C1899.19 67.8841 1875.77 51.6181 1843.69 39.226C1760.94 7.23015 1656 7.44388 1560.67 23.2783C1510.83 31.5543 1464.52 44.537 1417.2 55.7332C1351.72 71.227 1281.62 93.2458 1207.86 96.2347C1149.85 98.5558 1094.42 88.544 1050.11 70.4823C999.28 49.7692 950.404 19.9043 884.31 10.9278C819.608 2.1227 754.15 16.3766 693.701 30.7205C633.251 45.0645 573.441 62.5243 506.625 65.8237C411.057 70.5894 325.381 47.1498 236.392 34.1261C188.073 27.0594 141.993 29.0876 97.0479 40.235C61.1589 49.1155 20.2452 62.1964 0.00265638 80.3928L0 97.8808L1919.99 98Z" fill="white"/>
<path className="first" d="M1919.99 98L1919.99 93.4078C1680.11 49.8604 1417.45 39.795 1158.67 63.2295C1089.87 69.457 1023.9 79.6325 954.491 84.7996C860.09 91.833 774.525 74.8045 689.601 55.9083C595.317 34.9315 502.408 20.2273 398.088 24.4949C259.64 30.196 122.149 61.7622 0.000643032 93.6475L0 97.8808L1919.99 98Z" fill="white"/>
</svg>
